<svg width="16" height="16" viewBox="0 0 16 16" fill="none" xmlns="http://www.w3.org/2000/svg">
<mask id="mask0_6351_5816" style="mask-type:luminance" maskUnits="userSpaceOnUse" x="0" y="1" width="16" height="14">
<path d="M0.533203 1.6001H15.4665V14.3862H0.533203V1.6001Z" fill="white"/>
</mask>
<g mask="url(#mask0_6351_5816)">
<mask id="mask1_6351_5816" style="mask-type:luminance" maskUnits="userSpaceOnUse" x="-2" y="-1" width="20" height="18">
<path d="M2.73836 -0.835449L17.099 4.11791L12.8499 16.4369L-1.51074 11.4835L2.73836 -0.835449Z" fill="white"/>
</mask>
<g mask="url(#mask1_6351_5816)">
<mask id="mask2_6351_5816" style="mask-type:luminance" maskUnits="userSpaceOnUse" x="-2" y="-1" width="20" height="18">
<path d="M2.73836 -0.835449L17.099 4.11791L12.8499 16.4369L-1.51074 11.4835L2.73836 -0.835449Z" fill="white"/>
</mask>
<g mask="url(#mask2_6351_5816)">
<path fill-rule="evenodd" clip-rule="evenodd" d="M7.36847 9.05339C4.82254 8.17523 2.40474 6.9555 1.26656 5.39584C1.27407 5.3703 1.24254 5.36647 1.23449 5.41148C0.941305 7.27242 1.1797 8.84704 1.96108 10.2138C2.69906 11.5051 3.93641 12.8234 5.81783 13.4719C7.66506 14.109 9.46754 13.8529 10.8626 13.2842C12.32 12.69 13.4577 11.6107 14.3871 9.97484C12.5677 10.4295 9.90866 9.92953 7.36855 9.05339H7.36847ZM14.1798 8.32376C14.4912 8.55023 14.5962 8.87755 14.6429 9.23299C15.1751 8.63566 14.6489 7.96529 14.2342 7.6998C14.27 7.8815 14.2619 8.08445 14.1798 8.32376ZM1.51768 4.35802C1.42964 4.66701 1.62074 4.91291 1.78166 5.1451C1.96795 4.57378 2.36154 4.42833 2.81396 4.40346C2.90702 4.04933 3.20071 3.88955 3.28606 3.65583C2.76292 3.76146 1.7047 3.70165 1.51768 4.35802ZM11.4938 3.38086C11.3212 3.29568 11.089 3.34103 10.903 3.23068C10.773 3.15372 10.7555 2.95571 10.6669 2.828C10.2665 2.25078 9.6186 2.04067 8.96795 2.24197C8.7922 2.29634 8.65816 2.43075 8.50997 2.40525C8.25371 2.36133 8.20174 2.20488 7.95218 2.15927C7.58658 2.09268 7.11701 2.32761 6.9241 2.50093C6.77135 2.63803 6.74467 2.82677 6.55201 2.88123C6.30999 2.94968 6.05833 2.81447 5.86377 2.85805C5.59432 2.91841 5.21882 3.20025 5.06577 3.38608C4.95404 3.52193 4.94481 3.72002 4.78941 3.79947C4.61142 3.89052 4.30399 3.73693 4.10121 3.77629C3.78792 3.83716 3.56171 4.10994 3.37423 4.40919C3.29424 4.53673 3.25681 4.77133 3.10524 4.87839C2.91532 5.01305 2.56014 4.85538 2.37481 5.05533C2.22982 5.21157 2.24571 5.42703 2.1851 5.60532C4.34255 7.73453 9.35003 9.53485 12.6458 9.58843C13.0298 9.59479 13.8717 9.62459 14.0402 9.42679C14.388 9.019 13.7324 8.76851 13.6658 8.4943C13.6232 8.31883 13.7264 8.13646 13.7435 7.9591C13.7727 7.65436 13.7421 7.30563 13.6079 7.10896C13.5027 6.95457 13.058 6.8237 12.9812 6.59821C12.931 6.45149 13.0376 6.29057 13.0338 6.13445C13.0208 5.59188 12.7236 5.07965 12.1511 4.81251C12.1293 4.26424 11.9827 3.62245 11.4938 3.38086H11.4938ZM13.5282 6.33175C14.0007 6.69444 14.4223 6.97662 14.7895 7.4094C15.0929 7.76656 15.5232 8.31938 15.4556 8.81724C15.4175 9.09613 15.2582 9.34864 15.119 9.63812C14.7226 10.4613 14.344 11.1946 13.8479 11.7701C13.1792 12.5467 12.408 13.0963 11.6126 13.5161C9.98681 14.3732 7.91787 14.732 5.65261 13.9506C3.36049 13.16 1.97394 11.6005 1.22779 9.93413C0.584856 8.49935 0.256394 6.84305 0.865817 4.69517C0.954118 4.3839 1.02961 4.02982 1.16288 3.83395C1.3214 3.60083 1.72838 3.38431 1.99299 3.29015C2.72169 3.03069 3.68647 3.09644 4.55586 3.15671C5.0761 2.73953 5.54003 2.20711 6.33334 2.35062C6.75517 2.02587 7.20704 1.55836 7.91753 1.63874C8.11196 1.66066 8.3058 1.79848 8.52396 1.82103C8.75835 1.84543 9.1816 1.6239 9.45473 1.60662C10.2875 1.55389 10.9174 2.18207 11.2521 2.76203C12.3148 3.04708 12.5452 3.73794 12.6348 4.49741C13.3347 4.91295 13.51 5.58416 13.5282 6.33175Z" fill="black"/>
</g>
</g>
</g>
</svg>
