<svg width="31" height="30" viewBox="0 0 31 30" fill="none" xmlns="http://www.w3.org/2000/svg">
<g clip-path="url(#clip0_6351_4274)">
<path fill-rule="evenodd" clip-rule="evenodd" d="M4.72656 4.39282V20.8928H17.9189V19.7143H5.90513V5.57139H21.8158V6.82068H22.9944V4.39282H4.72656ZM22.9944 10.2857C22.9944 10.5983 22.8703 10.898 22.6492 11.1191C22.4282 11.3401 22.1284 11.4643 21.8158 11.4643C21.5033 11.4643 21.2035 11.3401 20.9825 11.1191C20.7614 10.898 20.6373 10.5983 20.6373 10.2857C20.6373 9.9731 20.7614 9.67333 20.9825 9.4523C21.2035 9.23128 21.5033 9.10711 21.8158 9.10711C22.1284 9.10711 22.4282 9.23128 22.6492 9.4523C22.8703 9.67333 22.9944 9.9731 22.9944 10.2857ZM24.173 10.2857C24.173 10.9108 23.9247 11.5104 23.4826 11.9524C23.0406 12.3945 22.441 12.6428 21.8158 12.6428C21.1907 12.6428 20.5911 12.3945 20.1491 11.9524C19.707 11.5104 19.4587 10.9108 19.4587 10.2857C19.4587 9.66053 19.707 9.06098 20.1491 8.61893C20.5911 8.17688 21.1907 7.92854 21.8158 7.92854C22.441 7.92854 23.0406 8.17688 23.4826 8.61893C23.9247 9.06098 24.173 9.66053 24.173 10.2857Z" fill="black"/>
<path fill-rule="evenodd" clip-rule="evenodd" d="M18.9241 13.7213C19.2527 13.4076 19.6895 13.2324 20.1439 13.2322H22.5493C23.4121 13.2322 24.2153 13.5256 24.834 14.1102C25.4292 14.6724 25.7392 15.3931 25.8659 16.0761C26.065 17.1497 25.8588 18.323 25.3514 19.3631V24.134C25.3514 24.5037 25.2124 24.8598 24.962 25.1318C24.7116 25.4038 24.3681 25.5717 23.9997 25.6022C23.6313 25.6327 23.2648 25.5236 22.9731 25.2964C22.6814 25.0693 22.4858 24.7408 22.425 24.3762L22.1103 22.4881L21.7957 24.3762C21.7349 24.7408 21.5392 25.0693 21.2475 25.2964C20.9558 25.5236 20.5894 25.6327 20.221 25.6022C19.8525 25.5717 19.509 25.4038 19.2586 25.1318C19.0082 24.8598 18.8692 24.5037 18.8693 24.134V18.5906C18.6005 18.7457 18.2957 18.8274 17.9853 18.8274H14.9788C14.5099 18.8274 14.0603 18.6412 13.7287 18.3097C13.3972 17.9781 13.2109 17.5285 13.2109 17.0596C13.2109 16.5907 13.3972 16.1411 13.7287 15.8095C14.0603 15.478 14.5099 15.2917 14.9788 15.2917H17.277L18.9241 13.7213ZM20.0478 20.5835V24.134C20.048 24.2078 20.0759 24.2788 20.126 24.333C20.1761 24.3873 20.2447 24.4207 20.3182 24.4268C20.3918 24.4329 20.4649 24.4111 20.5232 24.3658C20.5815 24.3206 20.6207 24.2551 20.633 24.1823L21.2476 20.4957C21.2705 20.3581 21.3414 20.2331 21.4478 20.1429C21.5542 20.0527 21.6892 20.0031 21.8287 20.0031H22.392C22.5315 20.0031 22.6664 20.0527 22.7728 20.1429C22.8792 20.2331 22.9502 20.3581 22.973 20.4957L23.5877 24.1823C23.6 24.2551 23.6391 24.3206 23.6974 24.3658C23.7557 24.4111 23.8289 24.4329 23.9024 24.4268C23.976 24.4207 24.0446 24.3873 24.0947 24.333C24.1447 24.2788 24.1726 24.2078 24.1728 24.134V19.2234C24.1728 19.1291 24.1955 19.0361 24.2388 18.9524C24.6938 18.0737 24.8594 17.1114 24.7073 16.2912C24.6148 15.7926 24.3985 15.32 24.0249 14.967C23.6437 14.607 23.138 14.4107 22.5493 14.4107H20.1445C19.993 14.4107 19.8469 14.4691 19.7373 14.5734L17.9199 16.3071C17.8104 16.4117 17.6648 16.4702 17.5133 16.4703H14.9788C14.8225 16.4703 14.6726 16.5324 14.5621 16.6429C14.4516 16.7534 14.3895 16.9033 14.3895 17.0596C14.3895 17.2159 14.4516 17.3658 14.5621 17.4763C14.6726 17.5868 14.8225 17.6489 14.9788 17.6489H17.9853C18.1368 17.6487 18.2824 17.5903 18.3919 17.4856L19.0519 16.8563C19.1354 16.7767 19.2405 16.7233 19.354 16.7029C19.4675 16.6824 19.5846 16.6957 19.6906 16.7411C19.7966 16.7866 19.887 16.8621 19.9505 16.9584C20.014 17.0547 20.0479 17.1676 20.0478 17.2829V20.5835Z" fill="black"/>
</g>
<defs>
<clipPath id="clip0_6351_4274">
<rect width="22" height="22" fill="white" transform="translate(4.3335 4)"/>
</clipPath>
</defs>
</svg>
