<svg width="18" height="18" viewBox="0 0 18 18" fill="none" xmlns="http://www.w3.org/2000/svg">
<path opacity="0.944" fill-rule="evenodd" clip-rule="evenodd" d="M8.63103 2.09183C11.6758 2.06925 13.8613 3.41691 15.1877 6.1348C16.1378 8.61219 15.8214 10.9091 14.2384 13.0254C14.0212 13.2661 13.8044 13.5063 13.5881 13.7461C13.88 14.3358 14.167 14.9276 14.4494 15.5215C14.4558 15.8664 14.2859 16.0129 13.9396 15.961C12.9084 15.7207 11.8771 15.4805 10.8459 15.2403C8.17716 15.8785 5.89788 15.2105 4.00798 13.2364C2.48258 11.4117 2.00212 9.33746 2.56658 7.01371C3.35738 4.50021 5.0273 2.91234 7.57634 2.25003C7.93128 2.18528 8.28284 2.13255 8.63103 2.09183ZM8.63103 2.83011C11.0085 2.77938 12.8425 3.74031 14.133 5.71293C15.2397 7.6853 15.2749 9.6775 14.2384 11.6895C13.8371 12.3605 13.3449 12.9582 12.7619 13.4825C12.7384 13.5879 12.7384 13.6934 12.7619 13.7989C12.967 14.209 13.1721 14.6192 13.3771 15.0293C13.3654 15.041 13.3537 15.0528 13.342 15.0645C12.5584 14.8774 11.7733 14.6958 10.9865 14.5196C10.881 14.4961 10.7756 14.4961 10.6701 14.5196C8.29149 15.0984 6.2583 14.5066 4.57048 12.7442C3.01844 10.8497 2.67859 8.75204 3.55095 6.45121C4.38194 4.64773 5.7589 3.49341 7.68181 2.98832C8.00138 2.92353 8.31779 2.8708 8.63103 2.83011Z" fill="black" stroke="black" stroke-width="0.5"/>
</svg>
