<svg width="20" height="20" viewBox="0 0 20 20" fill="none" xmlns="http://www.w3.org/2000/svg">
<g clip-path="url(#clip0_6426_6290)">
<path opacity="0.965" fill-rule="evenodd" clip-rule="evenodd" d="M19.9805 1.62109C19.9805 3.01432 19.9805 4.40754 19.9805 5.80078C19.7346 7.88125 18.8296 9.61301 17.2656 10.9961C17.2526 12.2982 17.2396 13.6003 17.2266 14.9023C16.9412 16.3727 16.0753 17.3036 14.6289 17.6953C13.5365 17.7454 12.4428 17.7714 11.3477 17.7734C10.6304 18.5037 9.90125 19.2199 9.16016 19.9219C8.92531 19.9912 8.73652 19.9326 8.59375 19.7461C8.57422 19.0821 8.56769 18.4181 8.57422 17.7539C6.66012 17.7604 4.74605 17.7539 2.83203 17.7344C1.28022 17.413 0.329697 16.482 -0.0195312 14.9414C-0.0195312 12.7669 -0.0195312 10.5925 -0.0195312 8.41797C0.311989 6.85598 1.26251 5.91199 2.83203 5.58594C4.85023 5.56641 6.86844 5.55988 8.88672 5.56641C8.88019 4.25125 8.88672 2.93613 8.90625 1.62109C8.95512 1.50857 9.03973 1.43695 9.16016 1.40625C10.933 1.24301 12.6257 0.787277 14.2383 0.0390625C14.3685 0.0130208 14.4987 0.0130208 14.6289 0.0390625C16.2414 0.787277 17.9342 1.24301 19.707 1.40625C19.8289 1.44402 19.9201 1.51563 19.9805 1.62109ZM14.3555 0.878906C15.1139 1.16666 15.8822 1.43359 16.6602 1.67969C17.4939 1.90979 18.3403 2.07255 19.1992 2.16797C19.2123 3.35352 19.1928 4.5384 19.1406 5.72266C18.8262 8.17066 17.6087 10.0131 15.4883 11.25C15.1455 11.4214 14.794 11.5711 14.4336 11.6992C11.8345 10.6947 10.2785 8.81973 9.76562 6.07422C9.72457 5.72387 9.69851 5.3723 9.6875 5.01953C9.66797 4.0691 9.66144 3.11858 9.66797 2.16797C11.3056 1.99305 12.8681 1.56336 14.3555 0.878906ZM3.33984 6.34766C5.21488 6.34113 7.08988 6.34766 8.96484 6.36719C9.30039 8.15856 10.1337 9.66895 11.4648 10.8984C10.9328 11.1493 10.757 11.5595 10.9375 12.1289C11.2175 12.5825 11.6146 12.7193 12.1289 12.5391C12.4356 12.3621 12.5984 12.0952 12.6172 11.7383C13.1366 12.0728 13.69 12.3398 14.2773 12.5391C14.3815 12.5651 14.4857 12.5651 14.5898 12.5391C15.2487 12.3105 15.8672 12.0045 16.4453 11.6211C16.4803 12.6897 16.4673 13.7574 16.4062 14.8242C16.1523 15.9636 15.4557 16.6602 14.3164 16.9141C13.1976 16.9631 12.0778 16.9891 10.957 16.9922C10.4178 17.4923 9.89043 18.0067 9.375 18.5352C9.36199 18.0794 9.34894 17.6237 9.33594 17.168C9.29035 17.0964 9.23176 17.0378 9.16016 16.9922C7.19402 16.9792 5.22785 16.9661 3.26172 16.9531C1.93798 16.8273 1.12418 16.1176 0.820312 14.8242C0.776789 13.7704 0.757258 12.7157 0.761719 11.6602C0.757258 10.6046 0.776789 9.54996 0.820312 8.49609C1.15332 7.18113 1.99316 6.46496 3.33984 6.34766Z" fill="black"/>
<path opacity="0.958" fill-rule="evenodd" clip-rule="evenodd" d="M5.21493 10.8789C5.89055 10.7874 6.26813 11.0739 6.34774 11.7383C6.33473 12.2982 6.04825 12.5847 5.48836 12.5977C5.12934 12.5972 4.86243 12.441 4.68758 12.1289C4.51079 11.5585 4.68657 11.1419 5.21493 10.8789Z" fill="black"/>
<path opacity="0.958" fill-rule="evenodd" clip-rule="evenodd" d="M8.33993 10.8789C9.01555 10.7874 9.39313 11.0739 9.47274 11.7383C9.45973 12.2982 9.17325 12.5847 8.61336 12.5977C8.25434 12.5972 7.98743 12.441 7.81258 12.1289C7.63579 11.5585 7.81157 11.1419 8.33993 10.8789Z" fill="black"/>
<path opacity="0.972" fill-rule="evenodd" clip-rule="evenodd" d="M14.3817 2.5C15.5529 2.53569 16.1129 3.18384 16.0618 4.44444C16.3414 4.4591 16.5374 4.60313 16.6499 4.87654C16.6723 5.88477 16.6723 6.893 16.6499 7.90123C16.5567 8.13312 16.3943 8.27117 16.1626 8.31532C15.1098 8.33934 14.0569 8.33934 13.004 8.31532C12.7724 8.27117 12.61 8.13312 12.5168 7.90123C12.4944 6.893 12.4944 5.88477 12.5168 4.87654C12.6293 4.60313 12.8253 4.4591 13.1048 4.44444C13.0371 3.41048 13.4627 2.76233 14.3817 2.5ZM14.4489 3.25617C13.9366 3.45256 13.7238 3.84865 13.8105 4.44444C14.3257 4.44444 14.841 4.44444 15.3562 4.44444C15.3659 4.23757 15.3491 4.03352 15.3058 3.8323C15.1555 3.41831 14.8699 3.22626 14.4489 3.25617ZM14.4489 5.56069C14.0505 5.78161 13.9777 6.09369 14.2305 6.49691C14.2473 6.73665 14.2529 6.97672 14.2473 7.21707C14.4825 7.21707 14.7177 7.21707 14.953 7.21707C14.9474 6.97672 14.953 6.73665 14.9698 6.49691C15.0521 6.38625 15.1026 6.26023 15.121 6.11882C15.0583 5.70955 14.8343 5.52353 14.4489 5.56069Z" fill="black"/>
</g>
<defs>
<clipPath id="clip0_6426_6290">
<rect width="20" height="20" fill="white"/>
</clipPath>
</defs>
</svg>
