<svg width="16" height="16" viewBox="0 0 16 16" fill="none" xmlns="http://www.w3.org/2000/svg">
<path d="M7.80153 13.2946C7.88865 13.2946 7.97798 13.2751 8.06954 13.236C8.16109 13.1969 8.23509 13.1491 8.29154 13.0926L13.4889 7.89464C13.6564 7.72708 13.7858 7.55597 13.8769 7.3813C13.9675 7.20575 14.0129 7.01331 14.0129 6.80397C14.0129 6.59197 13.9675 6.38619 13.8769 6.18664C13.7858 5.98664 13.6564 5.80442 13.4889 5.63997L10.9889 3.13997C10.824 2.97242 10.6544 2.84953 10.4802 2.7713C10.3064 2.69308 10.1135 2.65397 9.90154 2.65397C9.6922 2.65397 9.49776 2.69308 9.3182 2.7713C9.13865 2.84953 8.96953 2.97219 8.81087 3.1393L8.22953 3.72064L9.46287 4.9573C9.59531 5.08753 9.6942 5.23553 9.75954 5.4013C9.82442 5.56708 9.85687 5.7353 9.85687 5.90597C9.85687 6.25308 9.74331 6.54019 9.5162 6.7673C9.28909 6.99442 9.0022 7.10775 8.65553 7.10731C8.48442 7.10731 8.31754 7.0813 8.15487 7.0293C7.9922 6.9773 7.84576 6.88619 7.71554 6.75597L6.4402 5.4853L3.56154 8.3633C3.49442 8.43086 3.44398 8.50753 3.4102 8.59331C3.37642 8.67908 3.35954 8.76575 3.35954 8.8533C3.35954 9.01064 3.40998 9.14019 3.51087 9.24197C3.61131 9.34419 3.7402 9.39531 3.89754 9.39531C3.98465 9.39531 4.07398 9.37575 4.16554 9.33664C4.25709 9.29708 4.33109 9.24908 4.38754 9.19264L6.5002 7.07997L6.9722 7.55197L4.86287 9.66531C4.79531 9.73242 4.74465 9.80886 4.71087 9.89464C4.67754 9.98086 4.66087 10.0675 4.66087 10.1546C4.66087 10.3035 4.71331 10.4304 4.8182 10.5353C4.92309 10.6402 5.04998 10.6929 5.19887 10.6933C5.28598 10.6933 5.37531 10.6735 5.46687 10.634C5.55842 10.5944 5.63242 10.5466 5.68887 10.4906L7.95553 8.22797L8.42753 8.6993L6.1642 10.966C6.10509 11.0224 6.05665 11.0964 6.01887 11.188C5.98065 11.2795 5.96154 11.3689 5.96154 11.456C5.96154 11.6044 6.0142 11.7311 6.11954 11.836C6.22442 11.9417 6.35131 11.9946 6.5002 11.9946C6.58731 11.9946 6.67398 11.9777 6.7602 11.944C6.84642 11.9102 6.92287 11.8595 6.98954 11.792L9.2562 9.52864L9.7282 10.0006L7.46154 12.2673C7.39442 12.3349 7.34398 12.416 7.3102 12.5106C7.27642 12.6053 7.25954 12.6917 7.25954 12.77C7.25954 12.9273 7.31487 13.0542 7.42553 13.1506C7.5362 13.2471 7.66153 13.2953 7.80153 13.2953M7.79754 13.962C7.45487 13.962 7.16154 13.8366 6.91754 13.586C6.67354 13.3349 6.56642 13.0251 6.5962 12.6566C6.21842 12.6611 5.90398 12.5484 5.65287 12.3186C5.40176 12.0884 5.28242 11.7675 5.29487 11.356C4.88331 11.3604 4.55887 11.2426 4.32154 11.0026C4.0842 10.7626 3.9762 10.4466 3.99753 10.0546C3.62687 10.0591 3.31665 9.95464 3.06687 9.74131C2.81754 9.52886 2.69287 9.23286 2.69287 8.8533C2.69287 8.68219 2.72598 8.51108 2.7922 8.33997C2.85842 8.16842 2.9562 8.01775 3.08553 7.88797L6.4402 4.5373L8.16153 6.25864C8.21798 6.31775 8.28776 6.36642 8.37087 6.40464C8.45398 6.44286 8.54754 6.46175 8.65154 6.46131C8.7942 6.46131 8.9202 6.41153 9.02953 6.31197C9.13887 6.21242 9.19376 6.08264 9.1942 5.92264C9.1942 5.81864 9.17509 5.7253 9.13687 5.64264C9.09865 5.55953 9.0502 5.48975 8.99154 5.4333L6.6982 3.13997C6.53287 2.97242 6.36109 2.84953 6.18287 2.7713C6.00465 2.69308 5.80954 2.65397 5.59754 2.65397C5.3882 2.65397 5.19798 2.69308 5.02687 2.7713C4.8562 2.84953 4.68709 2.97242 4.51954 3.13997L2.4902 5.1733C2.34709 5.31553 2.23154 5.48553 2.14354 5.6833C2.05554 5.88064 2.00887 6.08442 2.00354 6.29464C1.99909 6.44531 2.01198 6.58997 2.0422 6.72864C2.07242 6.86731 2.12131 6.99797 2.18887 7.12064L1.68354 7.62597C1.57154 7.4473 1.48398 7.24153 1.42087 7.00864C1.35776 6.77575 1.32865 6.53797 1.33354 6.2953C1.33887 5.99219 1.39954 5.70219 1.51554 5.4253C1.63154 5.14842 1.79776 4.90153 2.0142 4.68464L4.03087 2.66797C4.26331 2.43775 4.50931 2.26664 4.76887 2.15464C5.02842 2.04308 5.30909 1.9873 5.61087 1.9873C5.91265 1.9873 6.19087 2.0433 6.44554 2.1553C6.70065 2.26686 6.94331 2.43775 7.17354 2.66797L7.75354 3.24864L8.33487 2.66797C8.56731 2.43775 8.81109 2.26664 9.0662 2.15464C9.32131 2.04308 9.59976 1.9873 9.90154 1.9873C10.2033 1.9873 10.484 2.0433 10.7435 2.1553C11.0026 2.26686 11.2471 2.43775 11.4769 2.66797L13.9609 5.1513C14.1906 5.38108 14.368 5.63908 14.4929 5.9253C14.6178 6.21153 14.68 6.50553 14.6795 6.80731C14.6795 7.10953 14.6173 7.38797 14.4929 7.64264C14.3684 7.8973 14.1911 8.13997 13.9609 8.37064L8.76287 13.564C8.62465 13.7026 8.47398 13.8035 8.31087 13.8666C8.1482 13.9297 7.97709 13.9613 7.79754 13.9613" fill="black"/>
</svg>
