<svg width="16" height="16" viewBox="0 0 16 16" fill="none" xmlns="http://www.w3.org/2000/svg">
<path fill-rule="evenodd" clip-rule="evenodd" d="M1.42871 13.2857V2.57143C1.42871 1.88944 1.69963 1.23539 2.18186 0.753154C2.6641 0.270918 3.31815 0 4.00014 0L12.0001 0C12.6821 0 13.3362 0.270918 13.8184 0.753154C14.3006 1.23539 14.5716 1.88944 14.5716 2.57143V11.4286C14.5716 11.6559 14.4813 11.8739 14.3205 12.0347C14.1598 12.1954 13.9418 12.2857 13.7144 12.2857H13.4287V14.2857H13.7144C13.9418 14.2857 14.1598 14.376 14.3205 14.5368C14.4813 14.6975 14.5716 14.9155 14.5716 15.1429C14.5716 15.3702 14.4813 15.5882 14.3205 15.7489C14.1598 15.9097 13.9418 16 13.7144 16H4.143C3.42312 16 2.73273 15.714 2.22371 15.205C1.71468 14.696 1.42871 14.0056 1.42871 13.2857ZM11.7144 12.2857H4.143C3.87778 12.2857 3.62343 12.3911 3.43589 12.5786C3.24835 12.7661 3.143 13.0205 3.143 13.2857C3.143 13.5509 3.24835 13.8053 3.43589 13.9928C3.62343 14.1804 3.87778 14.2857 4.143 14.2857H11.7144V12.2857ZM12.3544 5.45371C12.3062 5.36072 12.2334 5.28275 12.1439 5.22833C12.0545 5.17391 11.9517 5.14513 11.847 5.14514H9.20242C9.05087 5.14514 8.90553 5.20535 8.79836 5.31251C8.6912 5.41967 8.631 5.56502 8.631 5.71657C8.631 5.86812 8.6912 6.01347 8.79836 6.12063C8.90553 6.2278 9.05087 6.288 9.20242 6.288H10.743L8.57042 9.35543C8.50985 9.44095 8.47396 9.54148 8.46668 9.64602C8.4594 9.75057 8.48101 9.8551 8.52915 9.94819C8.57729 10.0413 8.6501 10.1193 8.73962 10.1738C8.82913 10.2283 8.93191 10.2571 9.03671 10.2571H12.0127C12.1643 10.2571 12.3096 10.1969 12.4168 10.0898C12.5239 9.98261 12.5841 9.83727 12.5841 9.68572C12.5841 9.53416 12.5239 9.38882 12.4168 9.28165C12.3096 9.17449 12.1643 9.11429 12.0127 9.11429H10.1419L12.3133 6.04686C12.3741 5.96139 12.4102 5.86084 12.4177 5.75622C12.4251 5.6516 12.4025 5.54694 12.3544 5.45371ZM6.64585 3.00571C6.57706 2.80104 6.44574 2.62314 6.27042 2.49711C6.0951 2.37108 5.88463 2.30328 5.66871 2.30328C5.45279 2.30328 5.24232 2.37108 5.067 2.49711C4.89168 2.62314 4.76036 2.80104 4.69157 3.00571L3.91785 5.32571L3.90985 5.35086L3.47214 6.66057C3.44835 6.73186 3.43884 6.80714 3.44414 6.8821C3.44945 6.95707 3.46946 7.03026 3.50305 7.09749C3.53664 7.16472 3.58314 7.22467 3.6399 7.27393C3.69666 7.32319 3.76256 7.36078 3.83385 7.38457C3.97783 7.43261 4.13499 7.42149 4.27077 7.35366C4.338 7.32007 4.39795 7.27357 4.44721 7.21681C4.49647 7.16005 4.53407 7.09415 4.55785 7.02286L4.86642 6.09029H6.46871L6.77957 7.02286C6.82761 7.16668 6.93082 7.28553 7.06649 7.35326C7.20216 7.42098 7.35917 7.43204 7.503 7.384C7.64682 7.33596 7.76567 7.23275 7.83339 7.09708C7.90112 6.96141 7.91218 6.80439 7.86414 6.66057L7.42757 5.35086L7.41843 5.32571L6.64585 3.00571ZM5.24585 4.94629L5.66643 3.68686L6.08585 4.94629H5.24585Z" fill="black"/>
</svg>
