<svg width="3" height="4" viewBox="0 0 3 4" fill="none" xmlns="http://www.w3.org/2000/svg">
<g clip-path="url(#clip0_6461_4776)">
<path d="M3 2C3 2.29667 2.91203 2.58668 2.7472 2.83336C2.58238 3.08003 2.34812 3.27229 2.07403 3.38582C1.79994 3.49935 1.49834 3.52906 1.20737 3.47118C0.916394 3.4133 0.64912 3.27044 0.439341 3.06066C0.229562 2.85088 0.0867006 2.58361 0.0288227 2.29263C-0.0290551 2.00166 0.000649921 1.70006 0.114181 1.42597C0.227713 1.15189 0.419972 0.917618 0.666645 0.752796C0.913319 0.587974 1.20333 0.5 1.5 0.5C1.89783 0.5 2.27936 0.658036 2.56066 0.93934C2.84196 1.22064 3 1.60217 3 2Z" fill="black"/>
</g>
<defs>
<clipPath id="clip0_6461_4776">
<rect width="3" height="3" fill="white" transform="translate(0 0.5)"/>
</clipPath>
</defs>
</svg>
