<svg width="18" height="18" viewBox="0 0 18 18" fill="none" xmlns="http://www.w3.org/2000/svg">
<g clip-path="url(#clip0_7135_87)">
<g clip-path="url(#clip1_7135_87)">
<path d="M12.3064 8.5605V0.6H5.69509V8.5605V9.16051H5.09509H1.52628C1.03062 9.18226 0.821462 9.32419 0.726353 9.45516L0.726363 9.45517L0.724083 9.45827C0.569251 9.66864 0.567475 9.85605 0.67258 10.0917C0.794251 10.3645 1.04817 10.6524 1.34572 10.9166L1.34572 10.9166L8.25036 17.0475L8.26383 17.0594L8.27657 17.0722C8.71297 17.5093 9.28852 17.5093 9.72492 17.0722L9.73802 17.0591L9.7519 17.0468L16.4862 11.0878L16.4862 11.0878C16.8162 10.7959 17.1287 10.4757 17.2925 10.1602C17.3707 10.0096 17.4007 9.88647 17.4 9.78642C17.3993 9.69541 17.3735 9.58883 17.2774 9.45831L17.2751 9.45516C17.1801 9.32424 16.9709 9.18226 16.4748 9.16051H12.9064H12.3064V8.5605Z" stroke="black" stroke-width="1.2"/>
</g>
</g>
<defs>
<clipPath id="clip0_7135_87">
<rect width="18" height="18" fill="white" transform="matrix(-1 0 0 -1 18 18)"/>
</clipPath>
<clipPath id="clip1_7135_87">
<rect width="18" height="18" fill="white" transform="matrix(1 0 0 -1 0 18)"/>
</clipPath>
</defs>
</svg>
