<svg width="18" height="18" viewBox="0 0 18 18" fill="none" xmlns="http://www.w3.org/2000/svg">
<path opacity="0.932" fill-rule="evenodd" clip-rule="evenodd" d="M17.9829 5.03533C17.9829 5.1611 17.9829 5.28684 17.9829 5.41262C17.9206 5.54909 17.8177 5.64626 17.6742 5.70416C17.3996 5.78994 17.1252 5.87568 16.851 5.9614C16.8167 6.61266 16.8053 7.26434 16.8167 7.91643C17.465 8.14945 17.7108 8.60676 17.5541 9.28838C17.486 9.49342 17.3659 9.65922 17.194 9.78571C17.3697 10.0384 17.4783 10.3185 17.5198 10.626C17.5882 11.0812 17.6111 11.5386 17.5884 11.998C17.531 12.2155 17.3995 12.3698 17.194 12.461C16.9737 12.4989 16.7507 12.5161 16.5252 12.5125C16.3365 12.5067 16.1479 12.501 15.9592 12.4953C15.5887 12.3583 15.4172 12.0896 15.4447 11.6893C15.4409 11.1257 15.5266 10.5769 15.702 10.043C15.7578 9.96005 15.8092 9.87431 15.8563 9.78571C15.4096 9.35828 15.3353 8.8724 15.6334 8.32801C15.7306 8.23084 15.8278 8.13364 15.9249 8.03647C16.0314 7.9724 16.1457 7.93238 16.2679 7.91643C16.2793 7.32148 16.2679 6.72698 16.2336 6.13289C15.5608 6.33824 14.8863 6.53834 14.21 6.73312C14.1476 7.56569 14.119 8.40601 14.1242 9.25408C14.0746 9.52089 13.9317 9.72099 13.6955 9.85431C12.6198 10.4148 11.4764 10.7464 10.2656 10.849C11.1247 11.1066 11.9821 11.3696 12.838 11.6378C13.0515 11.7484 13.2058 11.9142 13.3011 12.1352C13.5194 12.9985 13.3479 13.7759 12.7866 14.4675C12.5263 14.7663 12.2005 14.8864 11.8091 14.8276C8.58498 13.8444 5.3609 12.8612 2.13681 11.8779C1.60809 11.7837 1.31655 11.4693 1.2622 10.9347C1.17223 10.0724 1.4409 9.34645 2.06822 8.75675C2.30396 8.58186 2.56692 8.52472 2.85709 8.58525C3.31773 8.71785 3.77504 8.86074 4.22904 9.01399C4.27476 8.25942 4.27476 7.50484 4.22904 6.75027C3.01141 6.39583 1.79952 6.02427 0.593369 5.63556C0.523044 5.56816 0.46588 5.49384 0.421875 5.41262C0.421875 5.28684 0.421875 5.1611 0.421875 5.03533C0.498682 4.87296 0.624444 4.76434 0.799162 4.70949C3.5202 3.9092 6.24125 3.10888 8.96227 2.30858C9.17043 2.28098 9.37622 2.29242 9.57965 2.34288C11.1247 2.79487 12.6681 3.25217 14.21 3.71483C14.4078 3.84101 14.4307 3.99536 14.2786 4.17786C14.2209 4.21532 14.158 4.23819 14.0899 4.24646C12.5157 3.79142 10.9436 3.32838 9.37386 2.85736C9.27096 2.83449 9.16806 2.83449 9.06517 2.85736C6.38784 3.6393 3.71252 4.42817 1.03925 5.22397C2.61941 5.68591 4.19714 6.15467 5.77248 6.63022C5.88917 6.75778 5.90632 6.9007 5.82393 7.05896C5.71226 7.12512 5.59221 7.14227 5.4638 7.11041C5.2578 7.0475 5.052 6.9846 4.84642 6.92176C4.80643 7.26417 4.80073 7.60716 4.82927 7.95073C6.17114 8.75795 7.62884 9.15808 9.20236 9.15118C10.7759 9.15808 12.2336 8.75795 13.5755 7.95073C13.604 7.60716 13.5983 7.26417 13.5583 6.92176C12.2656 7.30121 10.9736 7.68423 9.68255 8.07077C9.36244 8.18509 9.04229 8.18509 8.72218 8.07077C8.02681 7.85805 7.32941 7.65226 6.62995 7.45339C6.40523 7.33208 6.37093 7.17201 6.52706 6.97321C6.63688 6.92235 6.75124 6.91089 6.87005 6.93891C7.60174 7.15613 8.33347 7.37338 9.06517 7.59059C9.15664 7.61347 9.24808 7.61347 9.33956 7.59059C11.2279 7.03564 13.1144 6.4754 14.9989 5.90995C13.1003 5.75746 11.2024 5.59738 9.30526 5.42977C9.13256 5.32642 9.09254 5.1835 9.18521 5.00103C9.21619 4.95984 9.25618 4.93123 9.30526 4.91528C11.7178 5.09631 14.1301 5.27926 16.5423 5.46407C16.8187 5.39097 17.0931 5.31096 17.3655 5.22397C16.601 4.98999 15.835 4.76132 15.0675 4.538C14.9389 4.42697 14.9103 4.29551 14.9817 4.14356C15.0427 4.06591 15.1228 4.02019 15.2218 4.00637C16.0507 4.25219 16.8796 4.49797 17.7085 4.74379C17.8311 4.81493 17.9226 4.9121 17.9829 5.03533ZM16.3708 8.43091C16.8849 8.40814 17.0964 8.64823 17.0053 9.15118C16.8208 9.46673 16.5636 9.54106 16.2336 9.37413C15.8858 9.00353 15.9316 8.68911 16.3708 8.43091ZM4.81212 8.6024C6.5783 9.52751 8.45328 9.8648 10.4371 9.61422C11.5502 9.48038 12.5963 9.14312 13.5755 8.6024C13.5983 8.79677 13.5983 8.99111 13.5755 9.18548C13.4284 9.37101 13.2397 9.50247 13.0095 9.57992C11.561 10.1986 10.0519 10.4387 8.48209 10.3002C7.28321 9.92901 6.08275 9.56318 4.88072 9.20263C4.81469 9.01275 4.79181 8.81269 4.81212 8.6024ZM2.5141 9.11689C2.65452 9.08962 2.76313 9.13534 2.83994 9.25408C2.90806 9.4536 2.94236 9.65939 2.94284 9.87146C3.01076 10.0569 3.14223 10.1197 3.33727 10.0601C3.37729 10.0201 3.4173 9.98008 3.45732 9.94006C3.48495 9.74853 3.47923 9.55989 3.44017 9.37413C4.86099 9.77522 6.27867 10.1982 7.69322 10.6432C7.84056 10.8203 7.90916 11.0261 7.89901 11.2606C7.87819 11.8037 7.68382 12.2724 7.31593 12.6668C7.2354 12.7299 7.14392 12.7699 7.04154 12.7869C5.63025 12.3659 4.224 11.9315 2.82279 11.4835C2.98861 11.324 3.10294 11.1353 3.16578 10.9176C3.11628 10.6512 2.96765 10.5769 2.71989 10.6946C2.59528 10.9038 2.43522 11.081 2.23971 11.2263C2.14672 11.2882 2.05526 11.2882 1.96532 11.2263C1.80276 10.958 1.75131 10.6664 1.81098 10.3516C1.87813 9.83953 2.11251 9.42794 2.5141 9.11689ZM16.4737 10.0087C16.7503 10.0626 16.9047 10.2341 16.9367 10.5231C17.0241 10.9767 17.0584 11.434 17.0396 11.8951C17.0225 11.9122 17.0053 11.9294 16.9882 11.9465C16.6795 11.9694 16.3708 11.9694 16.0621 11.9465C16.0406 11.9208 16.0235 11.8922 16.0107 11.8608C16.0027 11.4234 16.037 10.9889 16.1136 10.5574C16.1583 10.3178 16.2784 10.1348 16.4737 10.0087ZM8.41349 10.8661C9.82015 11.2912 11.2264 11.7199 12.6322 12.1523C12.7993 12.3216 12.8793 12.5274 12.8723 12.7697C12.8454 13.3606 12.6167 13.8523 12.1864 14.2446C12.1254 14.2687 12.0625 14.2858 11.9977 14.296C10.5838 13.8742 9.1718 13.4455 7.76181 13.0098C8.30531 12.3967 8.52256 11.6822 8.41349 10.8661Z" fill="black"/>
</svg>
