<svg width="3" height="4" viewBox="0 0 3 4" fill="none" xmlns="http://www.w3.org/2000/svg">
<path d="M1.48617 3.444C1.23017 3.444 0.990172 3.38 0.766172 3.252C0.550172 3.124 0.378172 2.952 0.250172 2.736C0.122172 2.512 0.0581719 2.268 0.0581719 2.004C0.0581719 1.732 0.122172 1.488 0.250172 1.272C0.378172 1.048 0.550172 0.872 0.766172 0.744C0.990172 0.616 1.23017 0.552 1.48617 0.552C1.75817 0.552 2.00217 0.616 2.21817 0.744C2.44217 0.872 2.61817 1.048 2.74617 1.272C2.87417 1.488 2.93817 1.732 2.93817 2.004C2.93817 2.268 2.87417 2.512 2.74617 2.736C2.61817 2.952 2.44217 3.124 2.21817 3.252C2.00217 3.38 1.75817 3.444 1.48617 3.444Z" fill="#949292"/>
</svg>
