<svg width="20" height="20" viewBox="0 0 20 20" fill="none" xmlns="http://www.w3.org/2000/svg">
<path d="M19.9603 9.77343C19.1987 7.78059 17.8708 6.05408 16.1402 4.80662L19.3336 1.60653L18.3936 0.666504L0.666402 18.3937L1.60643 19.3337L5.00653 15.9403C6.52442 16.8242 8.24372 17.304 10 17.3336C12.1731 17.2519 14.2745 16.5352 16.0447 15.2722C17.8149 14.0091 19.1762 12.2551 19.9603 10.2268C20.0132 10.0803 20.0132 9.9199 19.9603 9.77343ZM10 14.3336C9.08104 14.3331 8.18631 14.0388 7.44659 13.4935L8.66663 12.2868C9.17251 12.564 9.75462 12.6697 10.3256 12.588C10.8967 12.5063 11.4258 12.2417 11.8337 11.8338C12.2416 11.4259 12.5062 10.8968 12.5879 10.3257C12.6696 9.75472 12.5639 9.17261 12.2867 8.66673L13.4934 7.46003C13.9631 8.10511 14.2452 8.86751 14.3087 9.66293C14.3721 10.4584 14.2143 11.2558 13.8527 11.9672C13.4912 12.6785 12.94 13.276 12.2601 13.6937C11.5801 14.1113 10.7979 14.3327 10 14.3336ZM2.35312 13.8735L5.68654 10.5401C5.66945 10.3606 5.66277 10.1803 5.66654 10.0001C5.66831 8.85134 6.12543 7.75013 6.93773 6.93783C7.75003 6.12553 8.85124 5.66841 10 5.66665C10.176 5.66781 10.3519 5.67894 10.5267 5.69998L13.0468 3.18658C12.0659 2.84982 11.037 2.6742 10 2.66656C7.82695 2.74828 5.72547 3.46495 3.9553 4.72801C2.18512 5.99107 0.823847 7.74514 0.0397175 9.77343C-0.0132392 9.9199 -0.0132392 10.0803 0.0397175 10.2268C0.552436 11.5882 1.33991 12.8296 2.35312 13.8735Z" fill="black"/>
</svg>
