<svg width="22" height="22" viewBox="0 0 22 22" fill="none" xmlns="http://www.w3.org/2000/svg">
<path d="M10.6855 1.08881C10.5139 1.18155 1.21312 10.0324 1.09058 10.2178C0.898598 10.5041 1.02522 10.9719 1.34383 11.1493C1.49088 11.234 1.55623 11.242 2.20978 11.242H2.91234V16.0606C2.91234 19.3388 2.9246 20.9396 2.95727 21.0767C3.01037 21.3267 3.12066 21.4719 3.33715 21.5687C3.49645 21.6372 3.65984 21.6453 6.09022 21.6453C8.19383 21.6453 8.70033 21.6332 8.80653 21.5888C8.96583 21.5243 9.14147 21.3428 9.19866 21.1896C9.23134 21.113 9.24359 20.1453 9.24359 18.234V15.3953H11H12.7564V18.234C12.7564 20.1453 12.7687 21.113 12.8013 21.1896C12.8585 21.3428 13.0342 21.5243 13.1935 21.5888C13.2997 21.6332 13.8062 21.6453 15.9098 21.6453C18.3402 21.6453 18.5035 21.6372 18.6629 21.5687C18.8793 21.4719 18.9896 21.3267 19.0427 21.0767C19.0754 20.9396 19.0877 19.3388 19.0877 16.0606V11.242H19.7943C20.4438 11.242 20.5091 11.234 20.6562 11.1493C20.9748 10.9719 21.1014 10.5041 20.9094 10.2178C20.7869 10.0324 11.4861 1.18155 11.3145 1.08881C11.2247 1.04043 11.0817 1.0001 11 1.0001C10.9183 1.0001 10.7753 1.04043 10.6855 1.08881ZM15.6565 6.12914L20.2804 10.5364L19.5737 10.5566C18.961 10.5727 18.8426 10.5888 18.7241 10.6574C18.5444 10.7622 18.4382 10.9074 18.3933 11.1049C18.3688 11.1937 18.3524 13.3469 18.3524 16.109V20.9598H15.9016H13.4508V18.1211C13.4508 16.2057 13.4386 15.242 13.4059 15.1654C13.3446 15.0041 13.2098 14.8711 13.0219 14.7864C12.8708 14.7178 12.7196 14.7098 11 14.7098C9.28035 14.7098 9.12922 14.7178 8.97809 14.7864C8.79019 14.8711 8.6554 15.0041 8.59413 15.1654C8.56145 15.242 8.54919 16.2057 8.54919 18.1211V20.9598H6.09839H3.64758V16.109C3.64758 13.3469 3.63125 11.1937 3.60674 11.1049C3.56181 10.9074 3.4556 10.7622 3.27588 10.6574C3.15742 10.5888 3.03897 10.5727 2.43035 10.5566L1.71962 10.5364L6.34347 6.12914C8.88822 3.70978 10.9796 1.72591 11 1.72591C11.0163 1.72591 13.1159 3.70978 15.6565 6.12914Z" fill="black" stroke="black" stroke-width="0.5"/>
</svg>
