<svg width="21" height="20" viewBox="0 0 21 20" fill="none" xmlns="http://www.w3.org/2000/svg">
<g clip-path="url(#clip0_6754_6120)">
<path d="M15.8125 0H5.1875C2.59867 0 0.5 2.09867 0.5 4.6875V15.3125C0.5 17.9013 2.59867 20 5.1875 20H15.8125C18.4013 20 20.5 17.9013 20.5 15.3125V4.6875C20.5 2.09867 18.4013 0 15.8125 0Z" fill="white"/>
<path d="M15.8125 0H5.1875C2.59867 0 0.5 2.09867 0.5 4.6875V15.3125C0.5 17.9013 2.59867 20 5.1875 20H15.8125C18.4013 20 20.5 17.9013 20.5 15.3125V4.6875C20.5 2.09867 18.4013 0 15.8125 0Z" fill="#0A66C2"/>
<path d="M14.9309 17.0066H17.2176C17.3004 17.0066 17.3799 16.9737 17.4385 16.9151C17.4971 16.8566 17.5301 16.7771 17.5301 16.6942L17.5312 11.8628C17.5312 9.33758 16.9871 7.39656 14.0361 7.39656C12.9143 7.35484 11.8564 7.93313 11.2855 8.89875C11.2828 8.90344 11.2785 8.90709 11.2734 8.90914C11.2684 8.91119 11.2628 8.91153 11.2575 8.9101C11.2523 8.90867 11.2476 8.90556 11.2443 8.90124C11.2409 8.89692 11.2391 8.89163 11.2391 8.88617V7.94219C11.2391 7.85931 11.2061 7.77982 11.1475 7.72122C11.0889 7.66261 11.0094 7.62969 10.9266 7.62969H8.75648C8.6736 7.62969 8.59412 7.66261 8.53551 7.72122C8.47691 7.77982 8.44398 7.85931 8.44398 7.94219V16.6937C8.44398 16.7766 8.47691 16.8561 8.53551 16.9147C8.59412 16.9733 8.6736 17.0062 8.75648 17.0062H11.043C11.1259 17.0062 11.2054 16.9733 11.264 16.9147C11.3226 16.8561 11.3555 16.7766 11.3555 16.6937V12.3677C11.3555 11.1445 11.5876 9.95992 13.1041 9.95992C14.599 9.95992 14.6184 11.3596 14.6184 12.447V16.6941C14.6184 16.777 14.6513 16.8565 14.7099 16.9151C14.7685 16.9737 14.848 17.0066 14.9309 17.0066ZM3.46875 4.65844C3.46875 5.58531 4.2318 6.34797 5.15875 6.34797C6.08547 6.34789 6.84805 5.58477 6.84805 4.65805C6.84789 3.73133 6.08523 2.96875 5.15844 2.96875C4.23141 2.96875 3.46875 3.73156 3.46875 4.65844ZM4.01242 17.0066H6.30203C6.38491 17.0066 6.4644 16.9737 6.523 16.9151C6.58161 16.8565 6.61453 16.777 6.61453 16.6941V7.94219C6.61453 7.85931 6.58161 7.77982 6.523 7.72122C6.4644 7.66261 6.38491 7.62969 6.30203 7.62969H4.01242C3.92954 7.62969 3.85006 7.66261 3.79145 7.72122C3.73285 7.77982 3.69992 7.85931 3.69992 7.94219V16.6941C3.69992 16.777 3.73285 16.8565 3.79145 16.9151C3.85006 16.9737 3.92954 17.0066 4.01242 17.0066Z" fill="white"/>
</g>
<defs>
<clipPath id="clip0_6754_6120">
<rect width="20" height="20" fill="white" transform="translate(0.5)"/>
</clipPath>
</defs>
</svg>
