<svg width="16" height="16" viewBox="0 0 16 16" fill="none" xmlns="http://www.w3.org/2000/svg">
<path d="M14.9999 5.51447C14.9748 6.38488 14.6169 7.21253 13.9999 7.82697L11.828 10.0001C11.5117 10.3181 11.1354 10.5703 10.721 10.7419C10.3065 10.9136 9.86219 11.0013 9.41362 11.0001H9.41049C8.95427 10.9998 8.50273 10.908 8.08256 10.7303C7.66238 10.5525 7.2821 10.2923 6.96416 9.96514C6.64622 9.63794 6.39709 9.25034 6.23146 8.82523C6.06584 8.40013 5.98709 7.94614 5.99987 7.49009C6.0036 7.35749 6.05985 7.23179 6.15626 7.14066C6.25266 7.04953 6.38132 7.00043 6.51393 7.00416C6.64654 7.00789 6.77223 7.06414 6.86337 7.16055C6.9545 7.25695 7.0036 7.38561 6.99987 7.51822C6.99076 7.84067 7.04639 8.16168 7.16345 8.46228C7.28051 8.76287 7.45664 9.03695 7.68142 9.26831C7.90621 9.49968 8.17509 9.68365 8.47218 9.80934C8.76927 9.93503 9.08854 9.99989 9.41112 10.0001C9.72822 10.0009 10.0423 9.93881 10.3353 9.81748C10.6283 9.69615 10.8943 9.51796 11.118 9.29322L13.2899 7.12135C13.738 6.6676 13.9884 6.055 13.9864 5.41729C13.9844 4.77958 13.7302 4.16855 13.2792 3.71762C12.8283 3.26669 12.2173 3.01247 11.5796 3.01048C10.9418 3.00848 10.3292 3.25887 9.87549 3.70697L9.18799 4.39447C9.09346 4.48428 8.96759 4.53361 8.83721 4.53194C8.70683 4.53027 8.58225 4.47773 8.49005 4.38553C8.39785 4.29333 8.34532 4.16876 8.34365 4.03838C8.34198 3.908 8.39131 3.78213 8.48112 3.68759L9.16862 3.00009C9.4858 2.6828 9.86239 2.4311 10.2769 2.25938C10.6913 2.08765 11.1356 1.99927 11.5842 1.99927C12.0329 1.99927 12.4771 2.08765 12.8916 2.25938C13.3061 2.4311 13.6827 2.6828 13.9999 3.00009C14.3284 3.32944 14.5865 3.7222 14.7584 4.15446C14.9303 4.58672 15.0125 5.04945 14.9999 5.51447ZM6.81237 11.6038L6.12487 12.2913C5.90065 12.5171 5.63379 12.696 5.33979 12.8177C5.0458 12.9394 4.73054 13.0014 4.41237 13.0001C3.93506 12.9997 3.46857 12.8579 3.07185 12.5925C2.67512 12.3271 2.36597 11.95 2.18344 11.509C2.00091 11.068 1.95321 10.5827 2.04635 10.1146C2.13949 9.64645 2.3693 9.21642 2.70674 8.87885L4.87487 6.70697C5.21636 6.36368 5.65319 6.131 6.12861 6.03915C6.60404 5.9473 7.0961 6.00053 7.54089 6.19193C7.98567 6.38332 8.36264 6.70403 8.62281 7.11241C8.88299 7.52079 9.01436 7.99797 8.99987 8.48197C8.99614 8.61458 9.04524 8.74324 9.13637 8.83964C9.2275 8.93605 9.3532 8.9923 9.48581 8.99603C9.61841 8.99976 9.74707 8.95066 9.84348 8.85953C9.93988 8.7684 9.99614 8.6427 9.99987 8.5101C10.0119 8.0458 9.92942 7.58391 9.75753 7.15244C9.58563 6.72098 9.32786 6.32893 8.99987 6.00009C8.35936 5.35986 7.4908 5.00021 6.58518 5.00021C5.67956 5.00021 4.811 5.35986 4.17049 6.00009L1.99987 8.17197C1.52251 8.64913 1.19732 9.25709 1.06537 9.91901C0.933434 10.5809 1.00067 11.2671 1.25859 11.8908C1.5165 12.5146 1.95353 13.0478 2.51442 13.4233C3.07532 13.7987 3.73492 13.9994 4.40987 14.0001C4.85854 14.0014 5.30301 13.9137 5.71754 13.742C6.13208 13.5704 6.50845 13.3182 6.82487 13.0001L7.51237 12.3126C7.59328 12.2173 7.63556 12.0951 7.63085 11.9702C7.62615 11.8452 7.5748 11.7266 7.48695 11.6376C7.39909 11.5487 7.2811 11.4959 7.15623 11.4896C7.03136 11.4834 6.90868 11.5241 6.81237 11.6038Z" fill="black"/>
</svg>
