<svg width="199" height="26" viewBox="0 0 199 26" fill="none" xmlns="http://www.w3.org/2000/svg">
<g clip-path="url(#clip0_6315_3041)">
<path d="M42.6361 8.27589C43.0161 8.3968 43.3313 8.60371 43.5812 8.89663C43.8318 9.18986 43.9574 9.65939 43.9574 10.3058C43.9574 10.9523 43.7669 11.6596 43.3859 12.4276C43.0055 13.195 42.4553 13.5785 41.7346 13.5785C41.3745 13.5785 41.029 13.4977 40.6984 13.3361C40.3683 13.1744 39.9331 13.0936 39.3928 13.0936C38.8523 13.0936 38.3469 13.2859 37.8762 13.6703C37.4054 14.0541 37.17 14.5185 37.17 15.0636V21.4277C37.17 21.8923 37.1549 22.2406 37.1251 22.4733C37.0951 22.7053 37.0002 22.9725 36.84 23.2752C36.5397 23.801 35.7589 24.0637 34.4971 24.0637C33.5361 24.0637 32.8457 23.8919 32.4259 23.5482C32.1056 23.266 31.9251 22.8317 31.8848 22.2455C31.8848 22.0432 31.8848 21.7503 31.8848 21.3665V10.7307C31.8848 10.2654 31.8996 9.91711 31.9297 9.6851C31.9594 9.45248 32.0449 9.19475 32.1857 8.91132C32.4653 8.36619 33.2461 8.09347 34.5274 8.09347C35.7286 8.09347 36.479 8.32578 36.7793 8.79011C37.0002 9.11425 37.1106 9.44758 37.1106 9.79039C37.2101 9.64929 37.3547 9.47788 37.5449 9.27617C37.7357 9.07385 38.1413 8.80083 38.7619 8.45709C39.3822 8.11367 39.9279 7.94165 40.3987 7.94165C40.8695 7.94165 41.265 7.96706 41.5853 8.01756C41.9056 8.06837 42.2557 8.15438 42.6361 8.27589Z" fill="#448D57"/>
<path d="M45.6089 10.76C45.6089 10.2957 45.6237 9.94764 45.6538 9.71563C45.6835 9.483 45.769 9.21488 45.9098 8.91124C46.1895 8.38662 46.9702 8.124 48.2515 8.124C49.2125 8.124 49.8931 8.29601 50.2935 8.63944C50.6339 8.92195 50.8144 9.35629 50.8347 9.94213C50.8541 10.1448 50.8638 10.4377 50.8638 10.8212V21.4276C50.8638 21.8922 50.8486 22.2405 50.8189 22.4732C50.7889 22.7052 50.6939 22.9724 50.5338 23.2751C50.2732 23.801 49.5025 24.0636 48.2212 24.0636C46.9599 24.0636 46.1895 23.7912 45.9098 23.2457C45.769 22.9421 45.6835 22.6795 45.6538 22.4573C45.6237 22.2353 45.6089 21.8818 45.6089 21.397V10.76ZM50.5483 5.13907C50.3985 5.4323 50.1334 5.63952 49.7524 5.76103C49.372 5.88194 48.8667 5.94224 48.2357 5.94224C47.6054 5.94224 47.1004 5.88194 46.7203 5.76103C46.3399 5.63952 46.0748 5.4274 45.9244 5.12438C45.7739 4.82075 45.6835 4.55323 45.6538 4.32122C45.6237 4.0886 45.6089 3.74027 45.6089 3.27564C45.6089 2.81131 45.6237 2.46268 45.6538 2.23006C45.6835 1.99744 45.769 1.74002 45.9098 1.45751C46.1895 0.911454 46.9702 0.638428 48.2515 0.638428C49.5125 0.638428 50.2732 0.911454 50.5338 1.45751C50.6939 1.76053 50.7889 2.02804 50.8189 2.26067C50.8486 2.49268 50.8638 2.841 50.8638 3.30625C50.8638 3.77088 50.8486 4.1192 50.8189 4.35183C50.7889 4.58384 50.6988 4.84615 50.5483 5.13907Z" fill="#448D57"/>
<path d="M58.2223 16.0784C58.2223 16.9373 58.5025 17.6039 59.0631 18.079C59.6237 18.5534 60.2188 18.7903 60.8491 18.7903C61.4801 18.7903 62.0709 18.6039 62.6218 18.2308C63.1726 17.8571 63.6179 17.67 63.9577 17.67C64.5586 17.67 65.2893 18.2051 66.1501 19.2751C66.6103 19.8613 66.8405 20.3865 66.8405 20.8509C66.8405 21.6191 66.29 22.3366 65.1892 23.0032C64.0478 23.8113 62.6464 24.2153 60.985 24.2153C59.1229 24.2153 57.3311 23.5383 55.61 22.1842C54.7889 21.5377 54.1179 20.6742 53.5971 19.5935C53.0768 18.513 52.8169 17.3211 52.8169 16.0184C52.8169 14.7151 53.0768 13.533 53.5971 12.4727C54.1179 11.4119 54.7889 10.5579 55.61 9.91144C57.2713 8.57876 59.0431 7.91211 60.9256 7.91211C61.6857 7.91211 62.4264 8.01832 63.1472 8.23044C63.8679 8.44194 64.3984 8.64885 64.739 8.85117L65.2195 9.15481C65.5793 9.39722 65.8596 9.58914 66.0604 9.73024C66.5803 10.1343 66.8405 10.594 66.8405 11.1088C66.8405 11.624 66.6306 12.2046 66.2108 12.8511C65.4901 13.9621 64.7991 14.5174 64.1385 14.5174C63.7581 14.5174 63.2175 14.2955 62.5162 13.8513C62.1562 13.5079 61.6408 13.3359 60.9705 13.3359C60.2998 13.3359 59.674 13.5783 59.0934 14.0632C58.5126 14.548 58.2223 15.2198 58.2223 16.0784Z" fill="#448D57"/>
<path d="M84.0498 14.1696C84.0498 15.412 83.7443 16.3312 83.1337 16.9268C82.5228 17.5228 81.847 17.8206 81.1062 17.8206H73.9889C73.9889 18.3862 74.3192 18.8613 74.9802 19.2457C75.6408 19.6295 76.3015 19.8212 76.9615 19.8212C78.123 19.8212 79.0342 19.6999 79.6952 19.4575L80.0252 19.3363C80.5057 19.1144 80.9061 19.0033 81.2264 19.0033C81.867 19.0033 82.4172 19.4575 82.8777 20.366C83.138 20.912 83.2684 21.377 83.2684 21.7605C83.2684 23.5587 81.136 24.4577 76.8717 24.4577C75.3897 24.4577 74.0732 24.2 72.9224 23.6851C71.7712 23.1694 70.8755 22.4874 70.2348 21.6393C68.9736 20.003 68.3433 18.1744 68.3433 16.1543C68.3433 13.6086 69.1589 11.5734 70.7905 10.0485C72.4219 8.52301 74.459 7.76025 76.9021 7.76025C79.6845 7.76025 81.7266 8.75043 83.0282 10.7305C83.7091 11.781 84.0498 12.9275 84.0498 14.1696ZM77.7126 15.0634C78.4736 15.0634 78.8543 14.7402 78.8543 14.0937C78.8543 13.6294 78.6787 13.256 78.3277 12.9735C77.9774 12.6903 77.4772 12.5486 76.8268 12.5486C76.1765 12.5486 75.5304 12.8164 74.8892 13.3518C74.2485 13.8865 73.9282 14.457 73.9282 15.0634H77.7126Z" fill="#448D57"/>
<path d="M95.2507 8.12393C96.6321 8.12393 97.4432 8.50806 97.6835 9.27603C97.8039 9.65985 97.8642 10.1646 97.8642 10.7905C97.8642 11.4168 97.799 11.9166 97.6689 12.2903C97.5385 12.6644 97.3331 12.9319 97.0525 13.0935C96.6327 13.3359 96.0224 13.4571 95.2216 13.4571L93.2997 13.3359V21.4569C93.2997 22.2252 93.2042 22.796 93.0134 23.1698C92.8232 23.5438 92.5329 23.7914 92.1422 23.9129C91.7521 24.0338 91.2468 24.0941 90.6255 24.0941C90.0049 24.0941 89.5096 24.0286 89.1392 23.897C88.7694 23.7657 88.5046 23.5536 88.3445 23.2604C88.1843 22.9674 88.0888 22.6996 88.0581 22.4572C88.0281 22.2148 88.0132 21.8616 88.0132 21.3969V13.3665H86.9322C86.4119 13.3258 86.0419 13.2046 85.822 13.0029C85.441 12.6194 85.2505 11.882 85.2505 10.7905C85.2505 9.1337 85.8414 8.30513 87.0232 8.30513H88.0132V6.70003C88.0132 5.14452 88.5635 3.73531 89.6646 2.47241C90.7663 1.20982 92.3582 0.578369 94.4402 0.578369C94.9004 0.578369 95.2459 0.593673 95.4764 0.623669C95.7069 0.653972 95.9721 0.749776 96.2724 0.911388C96.8126 1.17431 97.0829 1.95207 97.0829 3.24497C97.0829 4.21464 96.9124 4.91189 96.572 5.33612C96.2921 5.65935 95.8516 5.84116 95.2507 5.88095C95.0712 5.88095 94.7909 5.88095 94.4099 5.88095C93.6698 5.88095 93.2997 6.13378 93.2997 6.63881V8.30513L95.2507 8.12393Z" fill="#448D57"/>
<path d="M99.5156 10.76C99.5156 10.2957 99.5305 9.94764 99.5605 9.71563C99.5902 9.48301 99.6758 9.21488 99.8165 8.91124C100.096 8.38662 100.877 8.124 102.158 8.124C103.119 8.124 103.8 8.29602 104.2 8.63944C104.541 8.92196 104.721 9.35629 104.741 9.94213C104.761 10.1448 104.771 10.4377 104.771 10.8212V21.4276C104.771 21.8922 104.755 22.2406 104.726 22.4732C104.696 22.7052 104.601 22.9724 104.441 23.2751C104.18 23.801 103.409 24.0636 102.128 24.0636C100.867 24.0636 100.096 23.7912 99.8165 23.2457C99.6758 22.9421 99.5902 22.6795 99.5605 22.4573C99.5305 22.2353 99.5156 21.8818 99.5156 21.397V10.76ZM104.455 5.13907C104.305 5.4323 104.04 5.63952 103.659 5.76103C103.279 5.88194 102.773 5.94224 102.142 5.94224C101.512 5.94224 101.007 5.88194 100.627 5.76103C100.247 5.63952 99.9815 5.4274 99.8311 5.12438C99.6806 4.82075 99.5902 4.55323 99.5605 4.32122C99.5305 4.0886 99.5156 3.74027 99.5156 3.27564C99.5156 2.81131 99.5305 2.46268 99.5605 2.23006C99.5902 1.99744 99.6758 1.74002 99.8165 1.45751C100.096 0.911454 100.877 0.638428 102.158 0.638428C103.419 0.638428 104.18 0.911454 104.441 1.45751C104.601 1.76053 104.696 2.02805 104.726 2.26067C104.755 2.49268 104.771 2.841 104.771 3.30625C104.771 3.77088 104.755 4.1192 104.726 4.35183C104.696 4.58384 104.606 4.84615 104.455 5.13907Z" fill="#448D57"/>
<path d="M122.43 14.1696C122.43 15.412 122.125 16.3312 121.514 16.9268C120.903 17.5228 120.227 17.8206 119.487 17.8206H112.369C112.369 18.3862 112.7 18.8613 113.361 19.2457C114.021 19.6295 114.682 19.8212 115.342 19.8212C116.503 19.8212 117.415 19.6999 118.076 19.4575L118.406 19.3363C118.886 19.1144 119.286 19.0033 119.607 19.0033C120.247 19.0033 120.798 19.4575 121.258 20.366C121.518 20.912 121.649 21.377 121.649 21.7605C121.649 23.5587 119.516 24.4577 115.252 24.4577C113.77 24.4577 112.454 24.2 111.303 23.6851C110.152 23.1694 109.256 22.4874 108.615 21.6393C107.354 20.003 106.724 18.1744 106.724 16.1543C106.724 13.6086 107.539 11.5734 109.171 10.0485C110.802 8.52301 112.839 7.76025 115.282 7.76025C118.065 7.76025 120.107 8.75043 121.409 10.7305C122.09 11.781 122.43 12.9275 122.43 14.1696ZM116.093 15.0634C116.854 15.0634 117.235 14.7402 117.235 14.0937C117.235 13.6294 117.059 13.256 116.708 12.9735C116.358 12.6903 115.858 12.5486 115.207 12.5486C114.557 12.5486 113.911 12.8164 113.27 13.3518C112.629 13.8865 112.309 14.457 112.309 15.0634H116.093Z" fill="#448D57"/>
<path d="M124.382 3.24497C124.382 2.78064 124.397 2.43262 124.427 2.20061C124.456 1.96799 124.542 1.69986 124.683 1.39622C124.962 0.851089 125.743 0.578369 127.024 0.578369C128.246 0.578369 129.006 0.851089 129.307 1.39622C129.467 1.69986 129.562 1.97288 129.592 2.2153C129.622 2.45772 129.637 2.81125 129.637 3.27557V17.3064C129.637 18.0337 129.697 18.4934 129.816 18.685C129.937 18.8769 130.202 18.9727 130.612 18.9727C131.023 18.9727 131.298 18.988 131.439 19.018C131.579 19.0483 131.749 19.134 131.949 19.2751C132.35 19.5381 132.55 20.2555 132.55 21.4275C132.55 22.7002 132.35 23.4777 131.949 23.7599C131.429 24.1238 130.188 24.1847 128.226 23.9423C126.684 23.74 125.683 23.2248 125.223 22.3972C124.662 21.4073 124.382 19.8316 124.382 17.67V3.24497Z" fill="#448D57"/>
<path d="M144.817 1.44159C144.968 1.14867 145.233 0.941756 145.613 0.820853C145.994 0.699338 146.5 0.638428 147.13 0.638428C147.761 0.638428 148.266 0.699338 148.647 0.820853C149.028 0.941756 149.293 1.15387 149.443 1.45751C149.593 1.76053 149.683 2.02805 149.713 2.26067C149.743 2.49268 149.758 2.841 149.758 3.30625V21.397C149.758 21.8616 149.743 22.2099 149.713 22.4426C149.683 22.6746 149.588 22.932 149.428 23.2151C149.128 23.7606 148.282 24.033 146.89 24.033C145.498 24.033 144.723 23.538 144.563 22.5479C143.722 23.5175 142.551 24.0024 141.049 24.0024C139.247 24.0024 137.606 23.2099 136.124 21.6247C134.643 20.0389 133.902 18.1905 133.902 16.0797C133.902 13.9683 134.648 12.1147 136.139 10.5188C137.63 8.92226 139.267 8.124 141.049 8.124C142.531 8.124 143.682 8.62934 144.503 9.63972V3.27564C144.503 2.81131 144.518 2.46268 144.548 2.23006C144.578 1.99744 144.668 1.73482 144.817 1.44159ZM139.937 17.9125C140.458 18.458 141.089 18.7304 141.83 18.7304C142.571 18.7304 143.187 18.458 143.677 17.9125C144.167 17.3665 144.412 16.7653 144.412 16.1091C144.412 15.4522 144.177 14.8407 143.706 14.275C143.236 13.7094 142.601 13.4266 141.8 13.4266C140.999 13.4266 140.358 13.7045 139.878 14.2604C139.398 14.8162 139.157 15.4278 139.157 16.0944C139.157 16.7604 139.417 17.3665 139.937 17.9125Z" fill="#448D57"/>
<mask id="mask0_6315_3041" style="mask-type:luminance" maskUnits="userSpaceOnUse" x="0" y="2" width="27" height="24">
<path d="M0.338867 2.89185H26.3526V25.3804H0.338867V2.89185Z" fill="white"/>
</mask>
<g mask="url(#mask0_6315_3041)">
<mask id="mask1_6315_3041" style="mask-type:luminance" maskUnits="userSpaceOnUse" x="-4" y="-2" width="34" height="31">
<path d="M4.18934 -1.38037L29.1223 7.29739L21.7049 28.9972L-3.22803 20.3191L4.18934 -1.38037Z" fill="white"/>
</mask>
<g mask="url(#mask1_6315_3041)">
<mask id="mask2_6315_3041" style="mask-type:luminance" maskUnits="userSpaceOnUse" x="-4" y="-2" width="34" height="31">
<path d="M4.18934 -1.38037L29.1223 7.29739L21.7049 28.9972L-3.22803 20.3191L4.18934 -1.38037Z" fill="white"/>
</mask>
<g mask="url(#mask2_6315_3041)">
<path fill-rule="evenodd" clip-rule="evenodd" d="M12.2525 15.9959C7.81896 14.4529 3.60841 12.3094 1.62644 9.56875C1.63948 9.52406 1.58458 9.51733 1.57062 9.5963C1.05981 12.8665 1.47507 15.6332 2.83582 18.035C4.12104 20.304 6.2756 22.6207 9.55189 23.7603C12.7687 24.8796 15.9076 24.4297 18.3373 23.4303C20.875 22.3863 22.8563 20.4895 24.4746 17.6151C21.3063 18.4142 16.6759 17.5355 12.2525 15.9959ZM24.1136 14.7137C24.656 15.1119 24.8389 15.687 24.9202 16.3115C25.8469 15.2619 24.9305 14.0838 24.2086 13.6173C24.2708 13.9366 24.2565 14.2931 24.1136 14.7137ZM2.06354 7.74511C1.91036 8.2881 2.24311 8.72029 2.52339 9.1283C2.84795 8.12434 3.53318 7.86877 4.32093 7.825C4.48322 7.20273 4.99463 6.92205 5.14327 6.51129C4.23206 6.69677 2.38932 6.59179 2.06354 7.74511ZM19.4363 6.02798C19.1357 5.87831 18.7313 5.95819 18.4074 5.76414C18.1811 5.62885 18.1507 5.28083 17.9963 5.05647C17.299 4.04242 16.1709 3.67298 15.0376 4.02681C14.7316 4.12231 14.4983 4.3586 14.2402 4.31361C13.794 4.23648 13.7033 3.96161 13.2689 3.88142C12.6322 3.7645 11.8144 4.1774 11.4784 4.48196C11.2126 4.72284 11.1659 5.05433 10.8304 5.15014C10.4091 5.27043 9.97079 5.03291 9.63197 5.10943C9.16271 5.21533 8.50904 5.71057 8.24241 6.03716C8.04767 6.27591 8.03159 6.62423 7.76102 6.7635C7.45132 6.92358 6.91563 6.65362 6.56255 6.72279C6.01716 6.82992 5.62314 7.30925 5.29675 7.8351C5.15722 8.05915 5.09231 8.47144 4.8281 8.65968C4.49747 8.89629 3.87898 8.61897 3.55623 8.97036C3.30386 9.24491 3.33146 9.62354 3.22591 9.93697C6.98297 13.6785 15.7032 16.8419 21.4425 16.9362C22.111 16.9472 23.577 16.9995 23.8707 16.6521C24.4764 15.9356 23.3347 15.4954 23.2185 15.0134C23.1445 14.7051 23.3241 14.3847 23.3541 14.0731C23.4047 13.5374 23.3514 12.9246 23.1178 12.5791C22.9346 12.3079 22.1602 12.078 22.0264 11.6816C21.939 11.4239 22.1247 11.1411 22.118 10.8668C22.0953 9.9134 21.5778 9.01321 20.581 8.54368C20.5428 7.58043 20.2877 6.45252 19.4363 6.02798ZM22.9792 11.2133C23.8018 11.8509 24.5359 12.3465 25.1756 13.1071C25.7037 13.7348 26.4532 14.706 26.3352 15.5808C26.2691 16.0712 25.9916 16.5147 25.7492 17.0234C25.0588 18.47 24.3997 19.7586 23.5358 20.7699C22.3713 22.1344 21.0284 23.1001 19.6431 23.838C16.8118 25.344 13.2092 25.9745 9.26433 24.6014C5.27279 23.2121 2.85827 20.4717 1.55879 17.5437C0.439196 15.0222 -0.132888 12.112 0.92847 8.33768C1.08226 7.79071 1.2136 7.16845 1.44565 6.8241C1.72199 6.41456 2.43057 6.0341 2.89133 5.86851C4.16047 5.41275 5.84032 5.52815 7.35455 5.63405C8.2603 4.90098 9.06838 3.96559 10.4498 4.21781C11.1844 3.64696 11.9713 2.82543 13.2086 2.96684C13.5471 3.00541 13.8847 3.24752 14.2645 3.28701C14.6727 3.33016 15.4098 2.94083 15.8855 2.91022C17.3357 2.81778 18.4325 3.92152 19.0155 4.94077C20.8659 5.44153 21.2672 6.65545 21.4231 7.98997C22.6422 8.72029 22.9473 9.89963 22.9792 11.2133Z" fill="#448D57"/>
</g>
</g>
</g>
<mask id="mask3_6315_3041" style="mask-type:luminance" maskUnits="userSpaceOnUse" x="3" y="3" width="22" height="14">
<path d="M3.2124 3.83228H24.101V16.9963H3.2124V3.83228Z" fill="white"/>
</mask>
<g mask="url(#mask3_6315_3041)">
<mask id="mask4_6315_3041" style="mask-type:luminance" maskUnits="userSpaceOnUse" x="-4" y="-2" width="34" height="31">
<path d="M4.18983 -1.38037L29.1228 7.29739L21.7054 28.9972L-3.22754 20.3191L4.18983 -1.38037Z" fill="white"/>
</mask>
<g mask="url(#mask4_6315_3041)">
<mask id="mask5_6315_3041" style="mask-type:luminance" maskUnits="userSpaceOnUse" x="-4" y="-2" width="34" height="31">
<path d="M4.18983 -1.38037L29.1228 7.29739L21.7054 28.9972L-3.22754 20.3191L4.18983 -1.38037Z" fill="white"/>
</mask>
<g mask="url(#mask5_6315_3041)">
<path fill-rule="evenodd" clip-rule="evenodd" d="M20.5817 8.54365C21.5787 9.01318 22.0962 9.91337 22.1187 10.8668C22.1253 11.1411 21.9397 11.4239 22.0271 11.6816C22.1611 12.078 22.9352 12.3079 23.1185 12.5791C23.3523 12.9246 23.4054 13.5377 23.3547 14.073C23.325 14.3846 23.1451 14.7051 23.2195 15.0133C23.3353 15.4954 24.4771 15.9356 23.8713 16.6521C23.578 16.9995 22.112 16.9475 21.4432 16.9361C15.7038 16.8419 6.98393 13.6785 3.22656 9.93694C3.33212 9.62351 3.30452 9.24489 3.55689 8.97033C3.87964 8.61895 4.49813 8.89626 4.82876 8.65966C5.09296 8.47141 5.15788 8.05912 5.29741 7.83507C5.62379 7.30922 6.01782 6.82989 6.56321 6.72276C6.91629 6.65359 7.45197 6.92355 7.76168 6.76347C8.03225 6.6242 8.04832 6.27588 8.24306 6.03714C8.50939 5.71055 9.16337 5.2153 9.63263 5.1094C9.97145 5.03288 10.4098 5.2704 10.8311 5.15011C11.1666 5.0543 11.2133 4.72281 11.479 4.48193C11.8151 4.17737 12.6329 3.76447 13.2696 3.88139C13.7039 3.96159 13.7946 4.23645 14.2408 4.31358C14.499 4.35858 14.7322 4.12228 15.0383 4.02678C16.1715 3.67295 17.2996 4.04239 17.997 5.05645C18.1514 5.2808 18.1817 5.62882 18.408 5.76411C18.732 5.95817 19.1363 5.87828 19.4369 6.02795C20.2884 6.45249 20.5438 7.58041 20.5817 8.54365Z" fill="#F9FBEF"/>
</g>
</g>
</g>
<mask id="mask6_6315_3041" style="mask-type:luminance" maskUnits="userSpaceOnUse" x="1" y="6" width="5" height="4">
<path d="M1.96973 6.49634H5.1535V9.16049H1.96973V6.49634Z" fill="white"/>
</mask>
<g mask="url(#mask6_6315_3041)">
<mask id="mask7_6315_3041" style="mask-type:luminance" maskUnits="userSpaceOnUse" x="-4" y="-2" width="34" height="31">
<path d="M4.18934 -1.38037L29.1223 7.29739L21.7049 28.9972L-3.22803 20.3191L4.18934 -1.38037Z" fill="white"/>
</mask>
<g mask="url(#mask7_6315_3041)">
<mask id="mask8_6315_3041" style="mask-type:luminance" maskUnits="userSpaceOnUse" x="-4" y="-2" width="34" height="31">
<path d="M4.18934 -1.38037L29.1223 7.29739L21.7049 28.9972L-3.22803 20.3191L4.18934 -1.38037Z" fill="white"/>
</mask>
<g mask="url(#mask8_6315_3041)">
<path fill-rule="evenodd" clip-rule="evenodd" d="M5.14299 6.51147C4.99436 6.92193 4.48294 7.20292 4.32096 7.82518C3.5329 7.86895 2.84768 8.12453 2.52311 9.12848C2.24314 8.72017 1.91038 8.28829 2.06357 7.7453C2.38934 6.59197 4.23208 6.69696 5.14299 6.51147Z" fill="#FFD700"/>
</g>
</g>
</g>
<mask id="mask9_6315_3041" style="mask-type:luminance" maskUnits="userSpaceOnUse" x="24" y="13" width="2" height="4">
<path d="M24.1011 13.5486H25.3435V16.3694H24.1011V13.5486Z" fill="white"/>
</mask>
<g mask="url(#mask9_6315_3041)">
<mask id="mask10_6315_3041" style="mask-type:luminance" maskUnits="userSpaceOnUse" x="-4" y="-2" width="34" height="31">
<path d="M4.18983 -1.38037L29.1228 7.29739L21.7054 28.9972L-3.22754 20.3191L4.18983 -1.38037Z" fill="white"/>
</mask>
<g mask="url(#mask10_6315_3041)">
<mask id="mask11_6315_3041" style="mask-type:luminance" maskUnits="userSpaceOnUse" x="-4" y="-2" width="34" height="31">
<path d="M4.18983 -1.38037L29.1228 7.29739L21.7054 28.9972L-3.22754 20.3191L4.18983 -1.38037Z" fill="white"/>
</mask>
<g mask="url(#mask11_6315_3041)">
<path fill-rule="evenodd" clip-rule="evenodd" d="M24.2092 13.6174C24.9311 14.0839 25.8475 15.262 24.9208 16.3116C24.8395 15.6872 24.6566 15.112 24.1143 14.7138C24.2571 14.2933 24.2714 13.9367 24.2092 13.6174Z" fill="#FFD700"/>
</g>
</g>
</g>
<mask id="mask12_6315_3041" style="mask-type:luminance" maskUnits="userSpaceOnUse" x="1" y="9" width="24" height="16">
<path d="M1.34863 9.47388H24.4892V24.4401H1.34863V9.47388Z" fill="white"/>
</mask>
<g mask="url(#mask12_6315_3041)">
<mask id="mask13_6315_3041" style="mask-type:luminance" maskUnits="userSpaceOnUse" x="-4" y="-2" width="34" height="31">
<path d="M4.18983 -1.38037L29.1228 7.29739L21.7054 28.9972L-3.22754 20.3191L4.18983 -1.38037Z" fill="white"/>
</mask>
<g mask="url(#mask13_6315_3041)">
<mask id="mask14_6315_3041" style="mask-type:luminance" maskUnits="userSpaceOnUse" x="-4" y="-2" width="34" height="31">
<path d="M4.18983 -1.38037L29.1228 7.29739L21.7054 28.9972L-3.22754 20.3191L4.18983 -1.38037Z" fill="white"/>
</mask>
<g mask="url(#mask14_6315_3041)">
<path fill-rule="evenodd" clip-rule="evenodd" d="M24.4752 17.6151C22.8567 20.4896 20.8756 22.3864 18.3376 23.4304C15.9082 24.4298 12.7694 24.8797 9.55254 23.7601C6.27625 22.6208 4.12168 20.3041 2.83616 18.0351C1.47572 15.6332 1.06046 12.8666 1.57127 9.59637C1.58522 9.5174 1.64013 9.52413 1.62708 9.56882C3.60875 12.3095 7.8196 14.453 12.2531 15.996C16.6766 17.5355 21.3069 18.4143 24.4752 17.6151Z" fill="#FFD700"/>
</g>
</g>
</g>
</g>
<path d="M156.279 10.2449V0.444872H160.465C161.146 0.444872 161.72 0.552206 162.187 0.766872C162.654 0.972206 163.008 1.26621 163.251 1.64887C163.503 2.02221 163.629 2.46554 163.629 2.97887C163.629 3.47354 163.522 3.88887 163.307 4.22487C163.092 4.56087 162.808 4.81754 162.453 4.99487C162.108 5.17221 161.725 5.27954 161.305 5.31687L161.529 5.14887C161.986 5.16754 162.388 5.28887 162.733 5.51287C163.078 5.73687 163.349 6.03087 163.545 6.39487C163.75 6.74954 163.853 7.14154 163.853 7.57087C163.853 8.10287 163.727 8.56954 163.475 8.97087C163.223 9.37221 162.854 9.68487 162.369 9.90887C161.884 10.1329 161.296 10.2449 160.605 10.2449H156.279ZM158.379 8.53687H160.255C160.722 8.53687 161.081 8.43421 161.333 8.22887C161.594 8.01421 161.725 7.70621 161.725 7.30487C161.725 6.90354 161.59 6.59087 161.319 6.36687C161.058 6.14287 160.694 6.03087 160.227 6.03087H158.379V8.53687ZM158.379 4.47687H160.101C160.549 4.47687 160.89 4.37421 161.123 4.16887C161.366 3.96354 161.487 3.67421 161.487 3.30087C161.487 2.92754 161.366 2.63821 161.123 2.43287C160.89 2.21821 160.544 2.11087 160.087 2.11087H158.379V4.47687ZM168.157 10.2449V0.444872H174.723V2.13887H170.257V4.44887H174.303V6.07287H170.257V8.55087H174.723V10.2449H168.157ZM181.456 10.2449V2.13887H178.614V0.444872H186.398V2.13887H183.556V10.2449H181.456ZM188.835 10.2449L192.405 0.444872H194.813L198.383 10.2449H196.157L193.595 2.81087L191.033 10.2449H188.835ZM190.389 8.10287L190.949 6.47887H196.087L196.633 8.10287H190.389Z" fill="#949292"/>
<defs>
<clipPath id="clip0_6315_3041">
<rect width="150" height="25.5102" fill="white" transform="translate(0 0.244873)"/>
</clipPath>
</defs>
</svg>
