<svg width="20" height="20" viewBox="0 0 20 20" fill="none" xmlns="http://www.w3.org/2000/svg">
<path opacity="0.959" fill-rule="evenodd" clip-rule="evenodd" d="M7.89453 3.30078C9.48313 3.29427 11.0717 3.30078 12.6602 3.32031C14.4898 3.62657 15.5901 4.68777 15.9609 6.50391C15.987 9.09504 15.987 11.6862 15.9609 14.2773C15.7276 15.6302 14.9919 16.6003 13.7539 17.1875C13.4405 17.3212 13.115 17.4123 12.7773 17.4609C10.1862 17.487 7.59504 17.487 5.00391 17.4609C3.1877 17.09 2.12649 15.9898 1.82031 14.1602C1.79427 12.5716 1.79427 10.9831 1.82031 9.39453C3.82688 7.34242 5.8516 5.31117 7.89453 3.30078ZM8.48047 4.16016C9.91399 4.14242 11.3463 4.16195 12.7773 4.21875C14.0895 4.54129 14.8642 5.36809 15.1016 6.69922C15.1276 9.16016 15.1276 11.6211 15.1016 14.082C14.8394 15.477 14.0126 16.3168 12.6211 16.6016C10.1472 16.6276 7.67317 16.6276 5.19922 16.6016C3.75086 16.3251 2.91102 15.4592 2.67969 14.0039C2.66016 12.6628 2.65363 11.3217 2.66016 9.98047C3.61219 9.99766 4.5627 9.97813 5.51172 9.92188C7.15348 9.49106 8.13656 8.44289 8.46094 6.77734C8.48047 5.90504 8.48699 5.03266 8.48047 4.16016ZM7.58203 4.82422C7.60805 5.11039 7.6211 5.40336 7.6211 5.70313C7.74277 7.28395 7.07871 8.3777 5.62891 8.98438C5.46106 9.02961 5.29176 9.06867 5.12109 9.10156C4.52215 9.12762 3.92317 9.12762 3.32422 9.10156C4.75137 7.68094 6.17063 6.25516 7.58203 4.82422Z" fill="black"/>
<path opacity="0.947" fill-rule="evenodd" clip-rule="evenodd" d="M11.2539 7.05078C11.5334 6.99832 11.7222 7.10246 11.8203 7.36328C11.8464 8.00129 11.8464 8.63933 11.8203 9.27734C11.5845 9.66156 11.3111 9.68761 11 9.35547C10.974 8.66535 10.974 7.97527 11 7.28515C11.0584 7.17523 11.143 7.09711 11.2539 7.05078Z" fill="black"/>
<path opacity="0.943" fill-rule="evenodd" clip-rule="evenodd" d="M4.92562 11.543C5.12105 11.5267 5.28382 11.5919 5.4139 11.7383C6.28945 13.5856 7.74125 14.3474 9.76937 14.0234C11.027 13.6779 11.9059 12.9031 12.4061 11.6992C12.6533 11.4844 12.8877 11.4974 13.1092 11.7383C13.1912 11.9514 13.1782 12.1597 13.0702 12.3633C12.2011 14.044 10.8144 14.9294 8.91 15.0195C6.94367 14.9321 5.53089 14.0076 4.67171 12.2461C4.53199 11.924 4.6166 11.6896 4.92562 11.543Z" fill="black"/>
</svg>
