<svg width="20" height="20" viewBox="0 0 20 20" fill="none" xmlns="http://www.w3.org/2000/svg">
<g clip-path="url(#clip0_6426_6243)">
<path opacity="0.957" fill-rule="evenodd" clip-rule="evenodd" d="M19.9805 4.04297C19.9805 8.35285 19.9805 12.6628 19.9805 16.9727C19.723 17.9528 19.098 18.5582 18.1055 18.7891C12.6888 18.8151 7.27215 18.8151 1.85547 18.7891C0.86298 18.5582 0.23798 17.9528 -0.0195312 16.9727C-0.0195312 11.9206 -0.0195312 6.86848 -0.0195312 1.81641C0.077559 1.47849 0.298913 1.26365 0.644531 1.17188C6.11328 1.14583 11.582 1.14583 17.0508 1.17188C17.38 1.2537 17.5948 1.45552 17.6953 1.77734C17.7495 2.32246 17.7691 2.86934 17.7539 3.41797C18.2749 3.41146 18.7957 3.41797 19.3164 3.4375C19.6462 3.52669 19.8676 3.72851 19.9805 4.04297ZM0.917969 2.08984C6.20441 2.08984 11.4909 2.08984 16.7773 2.08984C16.7708 6.69922 16.7773 11.3086 16.7969 15.918C16.8495 16.4915 17.1555 16.8496 17.7148 16.9922C18.2563 17.0628 18.4712 16.835 18.3594 16.3086C18.2416 16.1431 18.0789 16.0584 17.8711 16.0547C17.8386 16.0221 17.806 15.9896 17.7734 15.957C17.7539 12.0899 17.7474 8.2227 17.7539 4.35547C18.1836 4.35547 18.6133 4.35547 19.043 4.35547C19.0495 8.50914 19.043 12.6628 19.0234 16.8164C18.8867 17.3698 18.5417 17.7148 17.9883 17.8516C12.6497 17.8776 7.31121 17.8776 1.97266 17.8516C1.41927 17.7148 1.07422 17.3698 0.9375 16.8164C0.917969 11.9076 0.911457 6.99871 0.917969 2.08984ZM3.61328 7.05078C4.82422 7.05078 6.03516 7.05078 7.24609 7.05078C7.24609 8.26172 7.24609 9.47266 7.24609 10.6836C6.03516 10.6836 4.82422 10.6836 3.61328 10.6836C3.61328 9.47266 3.61328 8.26172 3.61328 7.05078Z" fill="black"/>
<path opacity="0.961" fill-rule="evenodd" clip-rule="evenodd" d="M3.06633 3.84766C6.92051 3.84115 10.7747 3.84766 14.6288 3.86719C15.0089 4.00406 15.1066 4.25797 14.9218 4.62891C14.8601 4.6891 14.7885 4.73469 14.707 4.76563C10.8007 4.79168 6.89445 4.79168 2.9882 4.76563C2.70386 4.61606 2.61923 4.38816 2.7343 4.08203C2.82157 3.9609 2.93225 3.88277 3.06633 3.84766Z" fill="black"/>
<path opacity="0.964" fill-rule="evenodd" clip-rule="evenodd" d="M3.02734 6.11329C4.62895 6.10676 6.23051 6.11329 7.83203 6.13282C8.00781 6.1784 8.11848 6.28907 8.16406 6.46485C8.19012 8.07942 8.19012 9.69403 8.16406 11.3086C8.11848 11.4583 8.02082 11.556 7.87109 11.6016C6.24348 11.6276 4.6159 11.6276 2.98828 11.6016C2.83485 11.5393 2.73719 11.4286 2.69531 11.2695C2.66927 9.66797 2.66927 8.06641 2.69531 6.46485C2.7481 6.28848 2.85877 6.17129 3.02734 6.11329ZM3.61328 7.05079C3.61328 8.26172 3.61328 9.47266 3.61328 10.6836C4.82422 10.6836 6.03516 10.6836 7.24609 10.6836C7.24609 9.47266 7.24609 8.26172 7.24609 7.05079C6.03516 7.05079 4.82422 7.05079 3.61328 7.05079Z" fill="black"/>
<path opacity="0.957" fill-rule="evenodd" clip-rule="evenodd" d="M9.86321 6.11329C11.4648 6.10676 13.0664 6.11329 14.6679 6.13282C15.0402 6.31391 15.1118 6.58083 14.8827 6.9336C14.8273 6.9711 14.7687 7.00364 14.707 7.03126C13.0793 7.05731 11.4518 7.05731 9.82414 7.03126C9.53981 6.88169 9.45516 6.65379 9.57024 6.34766C9.65262 6.24524 9.75028 6.16711 9.86321 6.11329Z" fill="black"/>
<path opacity="0.957" fill-rule="evenodd" clip-rule="evenodd" d="M9.86303 8.37891C11.4646 8.37239 13.0662 8.37891 14.6677 8.39844C15.0244 8.5636 15.1025 8.81751 14.9021 9.16016C14.8384 9.23036 14.7603 9.27594 14.6677 9.29688C13.0662 9.32294 11.4646 9.32294 9.86303 9.29688C9.5462 9.16739 9.44854 8.93954 9.57006 8.61329C9.65245 8.51086 9.7501 8.43274 9.86303 8.37891Z" fill="black"/>
<path opacity="0.957" fill-rule="evenodd" clip-rule="evenodd" d="M9.86303 10.6445C11.4646 10.638 13.0662 10.6445 14.6677 10.6641C15.0244 10.8292 15.1025 11.0831 14.9021 11.4258C14.8384 11.496 14.7603 11.5416 14.6677 11.5625C13.0662 11.5886 11.4646 11.5886 9.86303 11.5625C9.5462 11.433 9.44854 11.2052 9.57006 10.8789C9.65245 10.7765 9.7501 10.6984 9.86303 10.6445Z" fill="black"/>
<path opacity="0.957" fill-rule="evenodd" clip-rule="evenodd" d="M2.98804 12.9102C4.6157 12.9036 6.24332 12.9102 7.87086 12.9297C8.16793 13.0752 8.25257 13.3031 8.12476 13.6133C8.05152 13.7182 7.95386 13.7899 7.83179 13.8281C6.23023 13.8542 4.62867 13.8542 3.02711 13.8281C2.71025 13.6986 2.6126 13.4708 2.73414 13.1445C2.8089 13.0525 2.89354 12.9744 2.98804 12.9102Z" fill="black"/>
<path opacity="0.957" fill-rule="evenodd" clip-rule="evenodd" d="M9.82464 12.9102C11.4523 12.9036 13.0799 12.9102 14.7075 12.9297C15.0316 13.1147 15.0967 13.3686 14.9028 13.6914C14.8391 13.7616 14.7609 13.8072 14.6684 13.8281C13.0668 13.8542 11.4653 13.8542 9.8637 13.8281C9.51531 13.6684 9.43066 13.4145 9.6098 13.0664C9.68058 13.0087 9.75218 12.9566 9.82464 12.9102Z" fill="black"/>
<path opacity="0.956" fill-rule="evenodd" clip-rule="evenodd" d="M2.9887 15.1758C4.61636 15.1693 6.24397 15.1758 7.87151 15.1953C8.20378 15.3777 8.26886 15.6316 8.06682 15.957C7.99671 16.0431 7.90553 16.0886 7.79339 16.0938C6.21788 16.1198 4.64233 16.1198 3.06682 16.0938C2.71795 15.9856 2.60728 15.7577 2.73479 15.4102C2.79314 15.3002 2.87777 15.2221 2.9887 15.1758Z" fill="black"/>
<path opacity="0.956" fill-rule="evenodd" clip-rule="evenodd" d="M9.82406 15.1758C11.4517 15.1693 13.0793 15.1758 14.7069 15.1953C14.9117 15.2723 15.0159 15.4221 15.0194 15.6445C15.002 15.8948 14.8718 16.0446 14.6287 16.0938C13.0532 16.1198 11.4777 16.1198 9.90218 16.0938C9.5221 15.9569 9.42445 15.703 9.60921 15.332C9.67999 15.2743 9.7516 15.2223 9.82406 15.1758Z" fill="black"/>
</g>
<defs>
<clipPath id="clip0_6426_6243">
<rect width="20" height="20" fill="white"/>
</clipPath>
</defs>
</svg>
