<svg width="25" height="24" viewBox="0 0 25 24" fill="none" xmlns="http://www.w3.org/2000/svg">
<path opacity="0.978" fill-rule="evenodd" clip-rule="evenodd" d="M11.7995 1.47668C14.8965 1.27922 17.3105 2.45109 19.0417 4.9923C19.6251 5.96112 19.9845 7.00802 20.1198 8.13293C20.1215 10.2905 20.1527 12.4467 20.2136 14.6017C20.2499 14.768 20.3123 14.9243 20.4011 15.0704C20.8896 15.7818 21.3896 16.4849 21.9011 17.1798C22.2852 18.0098 22.1212 18.7051 21.4089 19.2657C21.2738 19.3411 21.1332 19.4036 20.987 19.4532C19.4399 19.4611 17.893 19.4845 16.3464 19.5236C15.8147 21.3827 14.5804 22.3827 12.6433 22.5236C10.7062 22.3827 9.47179 21.3827 8.94014 19.5236C7.3935 19.4845 5.84662 19.4611 4.29951 19.4532C3.40301 19.1029 3.05145 18.4545 3.24483 17.5079C3.2917 17.3986 3.33858 17.2892 3.38545 17.1798C3.89697 16.4849 4.39696 15.7818 4.88545 15.0704C4.97419 14.9243 5.03669 14.768 5.07295 14.6017C5.13378 12.4467 5.16503 10.2905 5.1667 8.13293C5.67033 4.89522 7.47501 2.76241 10.5808 1.73449C10.9903 1.63235 11.3965 1.54641 11.7995 1.47668ZM12.5964 2.97668C15.504 3.14332 17.4337 4.59645 18.3855 7.33605C18.472 7.64379 18.5345 7.95626 18.573 8.27355C18.6173 10.5246 18.6642 12.7746 18.7136 15.0236C18.819 15.3906 18.9752 15.7343 19.1823 16.0548C19.6276 16.6876 20.073 17.3204 20.5183 17.9532C15.2683 17.9845 10.0183 17.9845 4.76826 17.9532C5.23906 17.2695 5.71561 16.5898 6.19795 15.9142C6.36201 15.633 6.48703 15.3362 6.57295 15.0236C6.62236 12.7746 6.66923 10.5246 6.71358 8.27355C7.0154 6.2853 8.02322 4.77747 9.73701 3.75012C10.6356 3.2653 11.5887 3.00749 12.5964 2.97668ZM10.5808 19.4767C11.9561 19.4611 13.3311 19.4767 14.7058 19.5236C14.1702 20.6664 13.2795 21.1117 12.0339 20.8595C11.3268 20.6289 10.8424 20.1679 10.5808 19.4767Z" fill="black"/>
</svg>
