<svg width="20" height="20" viewBox="0 0 20 20" fill="none" xmlns="http://www.w3.org/2000/svg">
<g clip-path="url(#clip0_6426_6266)">
<path opacity="0.944" fill-rule="evenodd" clip-rule="evenodd" d="M9.12109 -0.0195312C9.70703 -0.0195312 10.293 -0.0195312 10.8789 -0.0195312C12.5943 0.15514 14.1698 0.721547 15.6055 1.67969C15.8976 1.91526 15.9107 2.16266 15.6445 2.42188C15.5013 2.5 15.3581 2.5 15.2148 2.42188C12.3841 0.581035 9.40227 0.294575 6.26953 1.5625C3.02501 3.13392 1.2086 5.71855 0.820312 9.31641C0.67759 11.5959 1.27655 13.6532 2.61719 15.4883C2.6307 15.5554 2.65023 15.6205 2.67578 15.6836C2.46683 16.4152 2.28454 17.1444 2.12891 17.8711C2.84353 17.6696 3.55968 17.4743 4.27734 17.2852C4.34043 17.3107 4.40555 17.3302 4.47266 17.3438C6.9884 19.13 9.73578 19.5987 12.7148 18.75C16.1401 17.5643 18.2429 15.201 19.0234 11.6602C19.4468 9.12215 18.9389 6.79145 17.5 4.66797C17.4813 4.2309 17.6831 4.06812 18.1055 4.17969C18.9618 5.31355 19.5282 6.58309 19.8047 7.98828C19.8658 8.35816 19.9244 8.72273 19.9805 9.08203C19.9805 9.66797 19.9805 10.2539 19.9805 10.8398C19.4734 14.8429 17.377 17.6619 13.6914 19.2969C12.7662 19.6523 11.8157 19.8802 10.8398 19.9805C10.2669 19.9805 9.69402 19.9805 9.12109 19.9805C7.73543 19.8334 6.42035 19.4363 5.17578 18.7891C4.83797 18.5714 4.49289 18.3696 4.14062 18.1836C3.32607 18.3954 2.51227 18.6102 1.69922 18.8281C1.25 18.8997 1.0612 18.7109 1.13281 18.2617C1.34572 17.4295 1.57359 16.6027 1.81641 15.7812C0.760426 14.2996 0.148448 12.6524 -0.0195312 10.8398C-0.0195312 10.2669 -0.0195312 9.69402 -0.0195312 9.12109C0.468133 5.20285 2.49938 2.40988 6.07422 0.742188C7.05789 0.340022 8.07352 0.086116 9.12109 -0.0195312ZM9.66797 4.35547C11.0581 4.35996 12.0802 4.97195 12.7344 6.19141C13.2889 7.61246 13.009 8.84293 11.8945 9.88281C11.6407 10.0814 11.3673 10.2507 11.0742 10.3906C10.8028 10.5881 10.6009 10.842 10.4688 11.1523C10.3826 11.4482 10.3175 11.7477 10.2734 12.0508C10.0126 12.3164 9.76519 12.3034 9.53125 12.0117C9.45398 11.0986 9.77297 10.3499 10.4883 9.76562C10.87 9.55859 11.228 9.31773 11.5625 9.04297C12.2585 8.19426 12.3496 7.28281 11.8359 6.30859C11.1317 5.32301 10.2007 5.01703 9.04297 5.39062C8.37457 5.69449 7.92535 6.19578 7.69531 6.89453C7.30668 7.16949 7.05277 7.07836 6.93359 6.62109C7.20629 5.67965 7.79223 5.0091 8.69141 4.60938C9.01434 4.49289 9.33984 4.40824 9.66797 4.35547ZM9.78516 14.7461C10.2788 14.7641 10.4286 14.9985 10.2344 15.4492C9.90914 15.6881 9.66176 15.623 9.49219 15.2539C9.48371 15.0219 9.58137 14.8526 9.78516 14.7461Z" fill="black"/>
<path opacity="0.893" fill-rule="evenodd" clip-rule="evenodd" d="M16.5827 2.79302C17.0315 2.74048 17.2203 2.9358 17.1491 3.37896C16.9396 3.63995 16.7052 3.66598 16.4459 3.45708C16.3122 3.19809 16.3577 2.97673 16.5827 2.79302Z" fill="black"/>
<path opacity="0.942" fill-rule="evenodd" clip-rule="evenodd" d="M9.62877 3.53516C11.4564 3.53427 12.7649 4.35457 13.5546 5.99609C14.1585 7.7666 13.7744 9.28352 12.4022 10.5469C12.0735 10.7666 11.7415 10.9814 11.4061 11.1914C11.354 11.2695 11.3019 11.3477 11.2499 11.4258C11.1799 11.6956 11.1278 11.969 11.0936 12.2461C10.6616 13.0585 10.0301 13.2603 9.19909 12.8516C8.89916 12.6363 8.72338 12.3433 8.67174 11.9727C8.68057 10.4244 9.37717 9.31109 10.7616 8.63281C11.5523 7.85098 11.5392 7.08274 10.7225 6.32813C10.0111 5.88957 9.36659 5.97422 8.78893 6.58203C8.65116 6.80551 8.53397 7.03988 8.43737 7.28516C8.10998 7.75797 7.66077 7.94676 7.08971 7.85156C6.3028 7.58656 5.99682 7.04621 6.17174 6.23047C6.78331 4.63559 7.93565 3.73716 9.62877 3.53516ZM9.66784 4.35547C9.33971 4.40824 9.0142 4.49289 8.69127 4.60938C7.79209 5.0091 7.20616 5.67965 6.93346 6.62109C7.05264 7.07836 7.30655 7.16949 7.69518 6.89453C7.92522 6.19578 8.37444 5.69449 9.04284 5.39063C10.2006 5.01703 11.1316 5.32301 11.8358 6.30859C12.3495 7.28281 12.2584 8.19426 11.5624 9.04297C11.2279 9.31774 10.8698 9.55859 10.4881 9.76563C9.77284 10.3499 9.45385 11.0986 9.53112 12.0117C9.76506 12.3034 10.0124 12.3164 10.2733 12.0508C10.3174 11.7477 10.3824 11.4482 10.4686 11.1523C10.6008 10.842 10.8026 10.5881 11.0741 10.3906C11.3672 10.2507 11.6406 10.0814 11.8944 9.88281C13.0089 8.84293 13.2888 7.61246 12.7342 6.19141C12.0801 4.97195 11.058 4.35996 9.66784 4.35547Z" fill="black"/>
<path opacity="0.943" fill-rule="evenodd" clip-rule="evenodd" d="M9.66803 13.9258C10.5581 13.8788 11.0529 14.2954 11.1524 15.1758C11.0663 16.0236 10.5976 16.4338 9.74615 16.4063C9.00705 16.24 8.649 15.7778 8.67193 15.0196C8.76904 14.4345 9.10107 14.0699 9.66803 13.9258ZM9.78521 14.7461C9.58143 14.8527 9.48377 15.022 9.49225 15.2539C9.66182 15.6231 9.9092 15.6882 10.2344 15.4493C10.4286 14.9985 10.2789 14.7641 9.78521 14.7461Z" fill="black"/>
</g>
<defs>
<clipPath id="clip0_6426_6266">
<rect width="20" height="20" fill="white"/>
</clipPath>
</defs>
</svg>
