<svg width="20" height="20" viewBox="0 0 20 20" fill="none" xmlns="http://www.w3.org/2000/svg">
<g clip-path="url(#clip0_6426_6277)">
<path opacity="0.949" fill-rule="evenodd" clip-rule="evenodd" d="M7.67553 -0.0195312C8.18334 -0.0195312 8.69116 -0.0195312 9.19897 -0.0195312C12.0395 0.414172 14.0252 1.95063 15.156 4.58984C15.5607 5.6723 15.6974 6.78559 15.5662 7.92969C15.8511 8.48004 16.131 9.03344 16.406 9.58984C16.6008 10.2093 16.399 10.6455 15.8005 10.8984C15.4231 10.918 15.0455 10.9245 14.6677 10.918C14.6742 11.2828 14.6677 11.6474 14.6482 12.0117C14.6336 12.0475 14.614 12.0801 14.5896 12.1094C14.1115 12.1599 13.6298 12.186 13.1443 12.1875C12.3023 12.3416 12.0353 12.8169 12.3435 13.6133C12.5337 13.8679 12.7876 14.0046 13.1052 14.0234C13.574 14.0364 14.0427 14.0495 14.5115 14.0625C14.5472 14.0771 14.5798 14.0966 14.6091 14.1211C14.6729 14.7034 14.686 15.2893 14.6482 15.8789C14.5375 16.1979 14.3227 16.4128 14.0037 16.5234C13.0923 16.543 12.1808 16.5495 11.2693 16.543C11.2758 17.5847 11.2693 18.6264 11.2497 19.668C11.2401 19.8049 11.1815 19.909 11.074 19.9805C8.46979 19.9805 5.86565 19.9805 3.26147 19.9805C3.19727 19.9486 3.15169 19.8965 3.12475 19.8242C3.11173 17.2591 3.09871 14.694 3.08569 12.1289C2.92183 11.8346 2.72652 11.5611 2.49975 11.3086C1.12389 9.20789 0.850457 6.96832 1.67944 4.58984C2.82283 1.93834 4.82151 0.401883 7.67553 -0.0195312ZM7.71459 0.644531C10.4964 0.495551 12.6253 1.5893 14.1013 3.92578C14.8156 5.23152 15.089 6.62477 14.9216 8.10547C15.2382 8.72566 15.5442 9.35066 15.8396 9.98047C15.804 10.1528 15.6999 10.2505 15.5271 10.2734C15.0676 10.2751 14.6119 10.3011 14.1599 10.3516C14.1274 10.3841 14.0948 10.4167 14.0622 10.4492C14.0427 10.8136 14.0362 11.1782 14.0427 11.543C13.6258 11.5364 13.2092 11.543 12.7927 11.5625C11.8478 11.844 11.4376 12.4755 11.5622 13.457C11.725 14.0886 12.1221 14.4857 12.7537 14.6484C13.1831 14.668 13.6128 14.6745 14.0427 14.668C14.0492 14.9807 14.0427 15.2932 14.0232 15.6055C14.0073 15.7224 13.9487 15.8071 13.8474 15.8594C12.8993 15.9103 11.9488 15.9364 10.9958 15.9375C10.8201 16.0091 10.6964 16.1328 10.6247 16.3086C10.6052 17.3241 10.5987 18.3398 10.6052 19.3555C8.32659 19.3555 6.04791 19.3555 3.76928 19.3555C3.77579 16.9336 3.76928 14.5117 3.74975 12.0898C3.737 11.9084 3.68492 11.7391 3.5935 11.582C1.88191 9.58164 1.45222 7.32902 2.30444 4.82422C3.34247 2.43834 5.14584 1.04511 7.71459 0.644531Z" fill="black"/>
<path opacity="0.93" fill-rule="evenodd" clip-rule="evenodd" d="M7.79237 1.8554C8.08327 1.83866 8.36975 1.85819 8.65174 1.914C8.74713 2.0723 8.75366 2.23506 8.67128 2.40228C8.5953 2.45553 8.51065 2.48808 8.41737 2.49994C6.47838 2.59323 5.06565 3.49818 4.17909 5.21478C3.90123 5.8358 3.75801 6.48681 3.7494 7.1679C3.74518 7.38701 3.6345 7.49119 3.41737 7.4804C3.28177 7.49404 3.18411 7.44197 3.1244 7.32415C3.10344 5.26275 3.95631 3.68073 5.68299 2.57806C6.34702 2.20702 7.05014 1.96614 7.79237 1.8554Z" fill="black"/>
<path opacity="0.92" fill-rule="evenodd" clip-rule="evenodd" d="M17.6368 10.6054C18.0659 10.5647 18.2026 10.747 18.047 11.1523C17.6238 11.4713 17.2006 11.7903 16.7774 12.1093C16.3022 12.2591 16.1394 12.0963 16.2892 11.6211C16.7446 11.2865 17.1938 10.9479 17.6368 10.6054Z" fill="black"/>
<path opacity="0.972" fill-rule="evenodd" clip-rule="evenodd" d="M16.6994 12.793C17.3245 12.7865 17.9495 12.793 18.5744 12.8125C18.646 12.832 18.6916 12.8776 18.7111 12.9492C18.7372 13.0534 18.7372 13.1575 18.7111 13.2617C18.6916 13.3333 18.646 13.3789 18.5744 13.3984C17.9494 13.4245 17.3244 13.4245 16.6994 13.3984C16.5816 13.3387 16.5295 13.2411 16.5431 13.1055C16.5346 12.9662 16.5867 12.862 16.6994 12.793Z" fill="black"/>
<path opacity="0.921" fill-rule="evenodd" clip-rule="evenodd" d="M16.3868 14.043C16.5227 14.0307 16.6529 14.0502 16.7774 14.1016C17.1941 14.4141 17.6107 14.7266 18.0274 15.0391C18.2097 15.5209 18.0535 15.6902 17.5587 15.5469C17.1093 15.2143 16.6731 14.8693 16.2501 14.5118C16.1951 14.3186 16.2407 14.1624 16.3868 14.043Z" fill="black"/>
</g>
<defs>
<clipPath id="clip0_6426_6277">
<rect width="20" height="20" fill="white"/>
</clipPath>
</defs>
</svg>
