<svg width="16" height="16" viewBox="0 0 16 16" fill="none" xmlns="http://www.w3.org/2000/svg">
<g clip-path="url(#clip0_6351_5840)">
<path d="M7.99961 11.5385C8.13934 11.5385 8.25641 11.4913 8.35081 11.3969C8.44468 11.3025 8.49161 11.1857 8.49161 11.0465C8.49161 10.9073 8.44441 10.7902 8.35001 10.6953C8.25561 10.6004 8.13881 10.5532 7.99961 10.5537C7.86041 10.5542 7.74361 10.6014 7.64921 10.6953C7.55481 10.7892 7.50761 10.9062 7.50761 11.0465C7.50761 11.1868 7.55481 11.3036 7.64921 11.3969C7.74361 11.4902 7.86041 11.5374 7.99961 11.5385ZM7.59961 9.1697H8.39961V4.3073H7.59961V9.1697ZM5.33801 14.4001L1.59961 10.6689V5.3385L5.33081 1.6001H10.6612L14.3996 5.3313V10.6617L10.6684 14.4001H5.33801ZM5.67961 13.6001H10.3196L13.5996 10.3201V5.6801L10.3196 2.4001H5.67961L2.39961 5.6801V10.3201L5.67961 13.6001Z" fill="black"/>
</g>
<defs>
<clipPath id="clip0_6351_5840">
<rect width="12.8" height="12.8" fill="white" transform="translate(1.59961 1.6001)"/>
</clipPath>
</defs>
</svg>
