<svg width="18" height="18" viewBox="0 0 18 18" fill="none" xmlns="http://www.w3.org/2000/svg">
<path opacity="0.964" fill-rule="evenodd" clip-rule="evenodd" d="M3.232 1.00233C7.07737 0.99611 10.9227 1.00233 14.768 1.021C15.4131 1.14338 15.8175 1.52294 15.9813 2.15967C16.0062 6.83876 16.0062 11.5179 15.9813 16.197C15.6867 17.1377 15.0582 17.4924 14.096 17.261C13.9964 17.2112 13.8969 17.1614 13.7973 17.1117C12.2325 15.9218 10.6582 14.7458 9.07466 13.5837C7.49692 14.7118 5.93516 15.8629 4.38933 17.037C3.85942 17.3998 3.29942 17.4496 2.70933 17.1863C2.31786 16.9559 2.08763 16.6137 2.01867 16.1597C1.99378 11.5179 1.99378 6.87609 2.01867 2.23433C2.15606 1.55563 2.56051 1.14497 3.232 1.00233ZM3.38133 2.23433C7.15203 2.22811 10.9227 2.23433 14.6933 2.253C14.7235 2.26448 14.7484 2.28315 14.768 2.309C14.8115 6.8746 14.8177 11.4417 14.7867 16.0103C14.7012 16.1327 14.5955 16.1514 14.4693 16.0663C12.9204 14.8874 11.3649 13.7177 9.80266 12.557C9.25252 12.2696 8.71738 12.2945 8.19733 12.6317C6.63023 13.8258 5.04976 15.0018 3.456 16.1597C3.39037 16.1362 3.33437 16.0989 3.288 16.0477C3.2631 11.4806 3.2631 6.91343 3.288 2.34633C3.32701 2.31373 3.35811 2.27639 3.38133 2.23433Z" fill="#448D57" stroke="#448D57" stroke-width="0.3"/>
<path d="M4.47559 3.06262C4.47968 4.63626 4.52799 6.19922 4.58571 7.77035C4.61703 8.62304 4.59881 9.46915 4.71992 10.3169C4.84935 11.223 4.58232 12.1902 4.47559 13.0975" stroke="#448D57" stroke-width="3" stroke-linecap="round"/>
<path d="M4.04199 14.7081C4.6236 14.0499 5.20912 13.4049 5.84525 12.7982C6.29407 12.3701 6.82115 11.9914 7.23898 11.5318C7.73038 10.9912 8.1851 10.4001 8.6396 9.8283C8.86447 9.5454 9.19866 9.31948 9.16957 8.92668C9.08827 7.82925 7.9575 6.92375 7.37664 6.07038C6.97967 5.48719 6.50503 4.73441 6.39586 4.01935C6.38932 3.97653 6.3519 3.33468 6.33391 3.33108C6.26624 3.31755 6.29629 3.4639 6.27885 3.53068C6.20102 3.82867 6.14769 4.05181 6.0999 4.37036C5.90076 5.69801 6.01415 6.78482 6.358 8.05602C6.45927 8.4304 6.76283 9.55271 6.64019 9.18478C6.365 8.35921 6.31176 7.35804 6.241 6.4971C6.1604 5.51655 6.27759 4.58446 6.47845 3.62704C6.58614 3.11373 7.06074 3.0011 7.54182 2.98695C8.30838 2.96441 9.0679 3.18517 9.81653 3.3242C10.4686 3.4453 11.1007 3.42286 11.7574 3.35862C12.1111 3.32402 12.4548 3.31044 12.8105 3.31044C13.0761 3.31044 13.5899 3.2007 13.8085 3.39303C14.2992 3.82486 14.224 4.76226 14.249 5.3477C14.3254 7.13873 14.419 8.93119 14.483 10.723C14.5205 11.7727 14.3247 12.7857 14.3247 13.834C14.3247 13.99 14.3247 14.146 14.3247 14.302C14.3247 14.4628 14.3245 15.2687 14.132 14.8836C13.9018 14.4233 13.4932 14.0471 13.189 13.6344C12.7583 13.0499 12.3766 12.4346 11.9846 11.8243C11.6478 11.3 11.3186 10.7791 11.0795 10.2C10.3956 8.54339 10.6966 6.83036 11.3066 5.19284C11.3797 4.9966 11.5196 4.50067 11.8331 4.74891C12.093 4.9546 12.247 5.3533 12.3149 5.6643C12.4101 6.1002 12.4132 6.56376 12.4354 7.00642C12.4817 7.93298 12.5368 8.85584 12.6178 9.78013C12.6552 10.2076 12.7737 10.7726 12.6591 11.2048C12.5618 11.5713 12.1192 11.5743 11.8194 11.5834C11.2327 11.6011 10.6577 11.5785 10.0781 11.7004C9.75452 11.7684 9.43407 11.9837 9.10762 12.017C8.35993 12.0931 7.67039 11.1074 7.31813 10.582C6.73207 9.70783 6.90866 8.69137 7.25963 7.72221C7.54429 6.93617 7.94171 6.17671 8.31612 5.43029C8.45408 5.15524 8.66854 4.58388 9.07321 4.57684C9.7325 4.56538 9.8127 5.95161 9.87159 6.29751C10.1021 7.65115 10.0638 7.85264 10.3878 9.28458C11.2684 13.1771 10.4877 9.27574 11.5372 13.3453" stroke="#448D57" stroke-width="3" stroke-linecap="round"/>
</svg>
