<svg width="18" height="18" viewBox="0 0 18 18" fill="none" xmlns="http://www.w3.org/2000/svg">
<path opacity="0.964" fill-rule="evenodd" clip-rule="evenodd" d="M3.232 1.00233C7.07737 0.99611 10.9227 1.00233 14.768 1.021C15.4131 1.14338 15.8175 1.52294 15.9813 2.15967C16.0062 6.83876 16.0062 11.5179 15.9813 16.197C15.6867 17.1377 15.0582 17.4924 14.096 17.261C13.9964 17.2112 13.8969 17.1614 13.7973 17.1117C12.2325 15.9218 10.6582 14.7458 9.07466 13.5837C7.49692 14.7118 5.93516 15.8629 4.38933 17.037C3.85942 17.3998 3.29942 17.4496 2.70933 17.1863C2.31786 16.9559 2.08763 16.6137 2.01867 16.1597C1.99378 11.5179 1.99378 6.87609 2.01867 2.23433C2.15606 1.55563 2.56051 1.14497 3.232 1.00233ZM3.38133 2.23433C7.15203 2.22811 10.9227 2.23433 14.6933 2.253C14.7235 2.26448 14.7484 2.28315 14.768 2.309C14.8115 6.8746 14.8177 11.4417 14.7867 16.0103C14.7012 16.1327 14.5955 16.1514 14.4693 16.0663C12.9204 14.8874 11.3649 13.7177 9.80266 12.557C9.25252 12.2696 8.71738 12.2945 8.19733 12.6317C6.63023 13.8258 5.04976 15.0018 3.456 16.1597C3.39037 16.1362 3.33437 16.0989 3.288 16.0477C3.2631 11.4806 3.2631 6.91343 3.288 2.34633C3.32701 2.31373 3.35811 2.27639 3.38133 2.23433Z" fill="black" stroke="black" stroke-width="0.3"/>
</svg>
