<svg width="18" height="18" viewBox="0 0 18 18" fill="none" xmlns="http://www.w3.org/2000/svg">
<path d="M8.6591 1.57496C8.56066 1.6277 4.02902 5.30856 3.40324 5.84645C3.11144 6.09254 3.01301 6.27184 3.01301 6.53903C3.01301 6.97496 3.35754 7.3195 3.79699 7.3195C4.01847 7.3195 4.15207 7.26325 4.37707 7.08746C4.61965 6.8941 4.60558 6.87653 4.60558 7.37926V7.83629L2.89347 7.84684C0.808709 7.8609 0.988006 7.81871 0.446599 8.44801C0.0880057 8.86989 0.0282401 8.9859 0.00714636 9.31989C-0.017463 9.73473 0.123162 9.94918 0.42199 9.94918H0.527459V13.0464C0.527459 16.4425 0.516912 16.2984 0.734881 16.4285C0.829803 16.4847 1.36769 16.4882 9.00011 16.4882C18.0036 16.4882 17.3005 16.5058 17.4165 16.2632C17.4657 16.1578 17.4728 15.9714 17.4728 14.8289C17.4728 13.5527 17.4693 13.5105 17.4025 13.4367C17.304 13.3312 17.1142 13.3312 17.0157 13.4367C16.9489 13.507 16.9454 13.5562 16.9454 14.2101V14.9062H15.17H13.3946V12.4277V9.94918H15.17H16.9454V11.2078C16.9454 12.4277 16.9489 12.4699 17.0157 12.5437C17.1142 12.6492 17.304 12.6492 17.4025 12.5437C17.4693 12.4699 17.4728 12.4277 17.4728 11.2078V9.94918H17.5782C17.8771 9.94918 18.0177 9.73473 17.9931 9.31989C17.972 8.9859 17.9122 8.86989 17.5536 8.44801C17.0122 7.8152 17.188 7.8609 15.1103 7.84684L13.3946 7.83629V7.37926C13.3946 7.12965 13.4052 6.92575 13.4157 6.92575C13.4263 6.92575 13.5071 6.98551 13.5986 7.06285C13.8411 7.26325 13.9607 7.31246 14.2032 7.31246C14.9345 7.31246 15.2614 6.46168 14.7236 5.95192C14.4599 5.70231 9.46418 1.64176 9.34465 1.57848C9.1759 1.49059 8.8173 1.49059 8.6591 1.57496ZM11.781 4.2152C13.3278 5.48082 14.4353 6.41246 14.4528 6.46168C14.5232 6.64098 14.3052 6.85895 14.1259 6.78864C14.0837 6.77106 12.9341 5.84293 11.5736 4.732C9.58722 3.10426 9.08449 2.707 9.00363 2.707C8.92277 2.707 8.41652 3.10426 6.43019 4.732C5.06965 5.84293 3.91652 6.77106 3.87433 6.78864C3.68449 6.86246 3.46652 6.63043 3.55793 6.44762C3.58254 6.39489 4.79191 5.3859 6.24035 4.19762C8.76457 2.13395 8.8841 2.03903 9.00715 2.04957C9.12668 2.05661 9.42902 2.29215 11.781 4.2152ZM10.9232 4.87965L12.8497 6.45114L12.8603 11.2078L12.8673 15.9609H12.34H11.8126V15.6902C11.8126 15.2824 11.6614 15.0293 11.3802 14.9589L11.2853 14.9343V13.6441C11.2853 12.2238 11.2747 12.1289 11.0673 11.8054C10.8599 11.4785 10.5364 11.2746 10.1357 11.2148C9.82629 11.1691 8.17394 11.1691 7.86457 11.2148C7.46379 11.2746 7.14035 11.4785 6.93293 11.8054C6.7255 12.1289 6.71496 12.2238 6.71496 13.6441V14.9343L6.62004 14.9589C6.33879 15.0293 6.18761 15.2824 6.18761 15.6902V15.9609H5.66027H5.13293V11.2148V6.46871L5.47746 6.18746C5.66379 6.03278 6.53215 5.32262 7.40051 4.60895C8.27238 3.89528 8.98605 3.30817 8.98957 3.30817C8.99308 3.30465 9.86496 4.01129 10.9232 4.87965ZM4.60558 8.8945V9.42184H3.85324C3.4173 9.42184 3.05871 9.4359 3.00246 9.457C2.8091 9.53082 2.75285 9.73121 2.88293 9.87184C2.95324 9.94567 2.97785 9.94918 3.77941 9.94918H4.60558V12.4277V14.9062H2.83019H1.0548V12.4277V9.94918H1.51183C1.93371 9.94918 1.97238 9.94215 2.03918 9.87184C2.16926 9.73121 2.11301 9.53082 1.91965 9.457C1.86691 9.43942 1.53644 9.42184 1.17082 9.42184H0.516912L0.538006 9.28121C0.566131 9.0527 1.08996 8.45153 1.3009 8.40231C1.36769 8.38825 2.14113 8.37418 3.01652 8.37067L4.60558 8.36715V8.8945ZM16.6818 8.40231C16.7837 8.4234 16.8716 8.48317 16.9982 8.62028C17.3392 8.9859 17.4446 9.13356 17.4622 9.28121L17.4833 9.42184H15.4372H13.3946V8.8945V8.36715H14.9696C15.8345 8.36715 16.6044 8.38473 16.6818 8.40231ZM8.71886 13.3066V14.9062H7.98058H7.2423V13.6265V12.3468L7.34074 12.1605C7.52004 11.816 7.74855 11.7175 8.37785 11.7105L8.71886 11.707V13.3066ZM10.0935 11.7422C10.3501 11.7914 10.54 11.9285 10.6595 12.1605L10.7579 12.3468V13.6265V14.9062H10.0196H9.28136V13.3066V11.707H9.59425C9.763 11.707 9.99152 11.7246 10.0935 11.7422ZM4.60558 15.6972V15.9609H2.83019H1.0548V15.6972V15.4336H2.83019H4.60558V15.6972ZM11.2185 15.4687C11.2747 15.5004 11.2853 15.5461 11.2853 15.7324V15.9609H9.00011H6.71496V15.7324C6.71496 15.5566 6.72902 15.5004 6.77824 15.4722C6.86261 15.423 11.1236 15.4195 11.2185 15.4687ZM16.9454 15.6972V15.9609H15.17H13.3946V15.6972V15.4336H15.17H16.9454V15.6972Z" fill="black"/>
<path d="M8.47266 4.95351C7.75898 5.18203 7.24219 5.88164 7.24219 6.62695C7.24219 7.37929 7.78008 8.1 8.5043 8.31093C8.77852 8.39179 9.25312 8.38476 9.53437 8.29687C9.95625 8.16679 10.3676 7.8082 10.5785 7.39336C11.0461 6.46172 10.5328 5.2664 9.53086 4.95703C9.24258 4.86562 8.74687 4.86562 8.47266 4.95351ZM9.54492 5.52656C9.76289 5.63906 10.0336 5.92031 10.132 6.14179C10.1918 6.27187 10.2094 6.38086 10.2094 6.62695C10.2094 6.90117 10.1988 6.96797 10.1145 7.14023C9.98437 7.40742 9.70664 7.66758 9.43945 7.76601C9.26367 7.83281 9.1793 7.84336 8.92969 7.83281C8.56406 7.81523 8.35664 7.72031 8.11055 7.45664C7.86094 7.18945 7.79062 7.01015 7.79062 6.62695C7.79062 6.24375 7.86094 6.06445 8.11055 5.79726C8.3918 5.49843 8.60625 5.41054 9.05273 5.42461C9.31289 5.43515 9.40078 5.45273 9.54492 5.52656Z" fill="black"/>
<path d="M8.84883 5.84997C8.76445 5.91325 8.71875 6.08903 8.71875 6.34567C8.71875 6.70075 8.75742 6.77809 9.06328 7.00309C9.36563 7.23512 9.48164 7.25622 9.61523 7.11911C9.76289 6.97497 9.71719 6.83786 9.45352 6.63395C9.28828 6.50387 9.28125 6.49333 9.28125 6.31755C9.28125 5.97301 9.18984 5.80426 9 5.80426C8.95078 5.80426 8.88398 5.82536 8.84883 5.84997Z" fill="black"/>
<path d="M6.98191 9.1054C6.64441 9.16517 6.31745 9.46399 6.22253 9.80149C6.1698 9.99134 6.18034 10.2902 6.24011 10.4202C6.35612 10.6628 6.22253 10.6523 8.99987 10.6523C11.7737 10.6523 11.6436 10.6628 11.7596 10.4202C11.8053 10.3218 11.8159 10.2304 11.8053 10.0406C11.7772 9.63626 11.5979 9.35149 11.2569 9.18626L11.0565 9.08782L9.10534 9.08079C8.03308 9.08079 7.07683 9.09134 6.98191 9.1054ZM11.06 9.67493C11.1725 9.73821 11.285 9.92454 11.285 10.0511V10.1249H8.99987C6.76394 10.1249 6.71472 10.1249 6.71472 10.0581C6.71472 9.87532 6.85886 9.68899 7.0487 9.63274C7.10495 9.61868 8.00847 9.60462 9.05261 9.60814C10.7682 9.61517 10.9616 9.6222 11.06 9.67493Z" fill="black"/>
<path d="M1.93008 11.0355C1.58906 11.1445 1.58203 11.1727 1.58203 12.4453C1.58203 13.609 1.59258 13.6758 1.78945 13.7918C1.87734 13.8445 2.00742 13.8516 2.83008 13.8516C3.8707 13.8516 3.91992 13.841 4.02187 13.6266C4.07109 13.5246 4.07812 13.3559 4.07812 12.4453C4.07812 10.9336 4.15547 11.025 2.88281 11.0145C2.4082 11.0109 1.9793 11.0215 1.93008 11.0355ZM3.55078 12.4277V13.3242H2.83008H2.10937V12.4277V11.5312H2.83008H3.55078V12.4277Z" fill="black"/>
<path d="M14.2699 11.0355C13.9289 11.1445 13.9219 11.1727 13.9219 12.4453C13.9219 13.609 13.9324 13.6758 14.1293 13.7918C14.2172 13.8445 14.3473 13.8516 15.1699 13.8516C16.2105 13.8516 16.2598 13.841 16.3617 13.6266C16.4109 13.5246 16.418 13.3559 16.418 12.4453C16.418 10.9336 16.4953 11.025 15.2227 11.0145C14.748 11.0109 14.3191 11.0215 14.2699 11.0355ZM15.8906 12.4277V13.3242H15.1699H14.4492V12.4277V11.5312H15.1699H15.8906V12.4277Z" fill="black"/>
</svg>
