<svg width="18" height="18" viewBox="0 0 18 18" fill="none" xmlns="http://www.w3.org/2000/svg">
<path opacity="0.962" fill-rule="evenodd" clip-rule="evenodd" d="M9.43945 1.5C9.45899 1.5 9.47851 1.5 9.49805 1.5C11.8228 3.4145 14.1568 5.31879 16.5 7.21289C16.5 7.23243 16.5 7.25194 16.5 7.27148C14.1477 9.17933 11.7991 11.0934 9.4541 13.0137C9.43945 11.8321 9.43456 10.6504 9.43945 9.46875C6.63249 9.7166 4.46941 11.0154 2.9502 13.3652C2.84277 13.5606 2.73535 13.7559 2.62793 13.9512C2.26129 14.8015 1.89507 15.6512 1.5293 16.5C1.51953 16.5 1.50977 16.5 1.5 16.5C1.5 15.2695 1.5 14.0391 1.5 12.8086C1.79316 9.96038 3.14082 7.76801 5.54297 6.23145C6.74218 5.51408 8.041 5.11857 9.43945 5.04492C9.43945 3.86328 9.43945 2.68164 9.43945 1.5ZM10.3477 3.4043C11.9279 4.67183 13.5001 5.9511 15.0645 7.24219C13.5013 8.52703 11.9339 9.80634 10.3623 11.0801C10.3477 10.2305 10.3428 9.38092 10.3477 8.53125C7.04285 8.51402 4.4159 9.79819 2.4668 12.3838C2.88695 9.90466 4.18577 8.04917 6.36328 6.81738C7.61162 6.17022 8.93977 5.87238 10.3477 5.92383C10.3477 5.08397 10.3477 4.24414 10.3477 3.4043Z" fill="black" stroke="black" stroke-width="0.5"/>
</svg>
