<svg width="21" height="20" viewBox="0 0 21 20" fill="none" xmlns="http://www.w3.org/2000/svg">
<g clip-path="url(#clip0_6754_6111)">
<path d="M0.507812 14.913V14.9139C0.519782 15.3579 0.523474 15.8044 0.598363 16.2457C0.677721 16.7125 0.791161 17.1677 1.00759 17.5914C1.30019 18.1648 1.70203 18.6491 2.20926 19.0447C2.57345 19.3287 2.97129 19.5542 3.41168 19.6964C4.05385 19.9036 4.71634 19.983 5.38851 19.9869C5.80788 19.9895 6.22698 20 6.6465 19.9982C9.69315 19.9854 12.7399 20.0202 15.7866 19.9794C16.1909 19.974 16.5886 19.9246 16.9854 19.8521C17.7459 19.7129 18.418 19.3884 18.9931 18.8753C19.6632 18.2776 20.1154 17.546 20.3195 16.6631C20.4531 16.086 20.4865 15.5005 20.4922 14.9129V14.7957C20.4922 14.7503 20.4749 4.81219 20.4733 4.68083C20.4689 4.31999 20.4423 3.96187 20.3746 3.60682C20.2924 3.17416 20.1761 2.75257 19.9689 2.36115C19.7502 1.94761 19.4762 1.57577 19.1372 1.25084C18.6181 0.753006 18.019 0.400948 17.3215 0.214717C16.6915 0.0465577 16.0489 0.00932711 15.4015 0.00991005C15.4004 0.0097546 15.398 0.00318675 15.3978 0H5.59911C5.59892 0.0033422 5.5988 0.00668444 5.59857 0.00991005C5.23116 0.0166333 4.86321 0.013874 4.49766 0.059188C4.09722 0.108971 3.70062 0.183938 3.3216 0.323921C2.72459 0.54474 2.20588 0.888676 1.76281 1.34784C1.26082 1.86806 0.906972 2.46969 0.719226 3.17027C0.551728 3.79534 0.515274 4.43285 0.514381 5.07486" fill="#FFFC00"/>
<path d="M10.5908 16.8743C10.5492 16.8743 10.5096 16.8728 10.4795 16.8713C10.4556 16.8734 10.4309 16.8743 10.4062 16.8743C9.53427 16.8743 8.95125 16.4621 8.43674 16.0981C8.06798 15.8376 7.72019 15.5917 7.31275 15.5239C7.11265 15.4907 6.91359 15.4739 6.72126 15.4739C6.37472 15.4739 6.10086 15.5276 5.90091 15.5667C5.77787 15.5907 5.67177 15.6113 5.58977 15.6113C5.50388 15.6113 5.39954 15.5923 5.35605 15.4438C5.32158 15.3267 5.29686 15.2132 5.273 15.1039C5.21331 14.8308 5.17001 14.6641 5.06777 14.6483C3.97413 14.4796 3.32796 14.231 3.19924 13.93C3.18576 13.8983 3.17822 13.8665 3.17655 13.835C3.17153 13.7453 3.23488 13.6666 3.32333 13.652C4.19184 13.5089 4.96408 13.0499 5.61872 12.2871C6.12584 11.6966 6.37488 11.1324 6.40162 11.0701C6.40278 11.0673 6.40414 11.0644 6.40554 11.0617C6.53173 10.8056 6.55683 10.5844 6.48039 10.4043C6.33947 10.072 5.87277 9.92389 5.56401 9.82591C5.48721 9.80162 5.41458 9.77862 5.35671 9.75565C5.083 9.64753 4.63285 9.4191 4.69282 9.1038C4.7365 8.87389 5.0406 8.71378 5.28637 8.71378C5.35461 8.71378 5.41508 8.72575 5.46599 8.74965C5.74371 8.87976 5.99356 8.94571 6.20843 8.94571C6.47565 8.94571 6.60471 8.84397 6.63592 8.81505C6.62822 8.6725 6.61882 8.52179 6.60972 8.37924C6.60972 8.37909 6.60953 8.37738 6.60953 8.37738C6.54681 7.37958 6.46858 6.13783 6.7862 5.42575C7.73686 3.29424 9.75295 3.12849 10.348 3.12849C10.3639 3.12849 10.6074 3.12608 10.6074 3.12608C10.6184 3.12589 10.6303 3.12573 10.6427 3.12573C11.2394 3.12573 13.2597 3.29168 14.2109 5.42447C14.5285 6.13702 14.4502 7.37981 14.3873 8.37866L14.3843 8.42646C14.3757 8.56209 14.3677 8.69046 14.361 8.8149C14.3904 8.84194 14.5085 8.93522 14.7488 8.94466C14.9536 8.93681 15.189 8.87117 15.4483 8.7498C15.5284 8.71218 15.6171 8.70437 15.6773 8.70437C15.7684 8.70437 15.8611 8.72209 15.9383 8.75431L15.9424 8.7559C16.1624 8.83398 16.3064 8.99001 16.3095 9.15393C16.3123 9.30674 16.1987 9.53514 15.6402 9.75573C15.583 9.77838 15.51 9.80154 15.4329 9.82599C15.1239 9.92408 14.6575 10.0721 14.5166 10.4042C14.4401 10.5843 14.4653 10.8055 14.5915 11.0614C14.5929 11.0642 14.5941 11.0671 14.5954 11.07C14.6343 11.1611 15.575 13.306 17.6737 13.6518C17.7621 13.6665 17.8256 13.7453 17.8206 13.8348C17.8187 13.867 17.8109 13.8992 17.7973 13.9306C17.6695 14.23 17.0234 14.4782 15.9294 14.6472C15.8267 14.663 15.7835 14.829 15.7243 15.1006C15.6999 15.2128 15.6749 15.3228 15.6409 15.4384C15.6091 15.5471 15.5383 15.6002 15.4246 15.6002H15.4074C15.3334 15.6002 15.2285 15.5868 15.0962 15.5609C14.865 15.5159 14.6057 15.474 14.2759 15.474C14.0836 15.474 13.8846 15.4909 13.6842 15.524C13.2772 15.5918 12.9295 15.8373 12.5614 16.0976C12.0459 16.462 11.4626 16.8743 10.5908 16.8743Z" fill="white"/>
<path d="M10.6427 3.30144C11.2044 3.30144 13.1389 3.45234 14.0505 5.4961C14.3506 6.16908 14.2737 7.38817 14.212 8.36748C14.2023 8.52289 14.1928 8.67352 14.185 8.81735L14.1817 8.87918L14.223 8.92523C14.2397 8.94373 14.3957 9.1068 14.7428 9.12021L14.7484 9.12052L14.7542 9.1204C14.9836 9.11166 15.2421 9.04038 15.5227 8.90891C15.5641 8.88956 15.6191 8.88011 15.6773 8.88011C15.7437 8.88011 15.8142 8.89259 15.8723 8.91707L15.8811 8.92057C16.0283 8.97214 16.1323 9.06938 16.1339 9.15736C16.1347 9.20711 16.0976 9.3863 15.5759 9.59239C15.5249 9.61252 15.4578 9.63394 15.38 9.65846C15.0405 9.76626 14.5275 9.92894 14.3549 10.3357C14.2577 10.5649 14.2843 10.8353 14.434 11.1393C14.4955 11.283 15.4646 13.4658 17.6452 13.8252C17.6448 13.8355 17.6422 13.8468 17.6363 13.8601C17.5994 13.9472 17.3644 14.248 15.9026 14.4735C15.6738 14.5086 15.6178 14.765 15.5528 15.0631C15.5293 15.1698 15.5055 15.2775 15.4727 15.3888C15.4627 15.4224 15.4608 15.4243 15.4248 15.4243C15.4198 15.4243 15.414 15.4243 15.4076 15.4243C15.3428 15.4243 15.2444 15.4109 15.1303 15.3885C14.9226 15.348 14.6388 15.2984 14.276 15.2984C14.0735 15.2984 13.865 15.316 13.6557 15.3509C13.2083 15.4253 12.8445 15.6826 12.4593 15.955C11.9418 16.3206 11.4071 16.6989 10.5911 16.6989C10.5555 16.6989 10.5207 16.6977 10.4858 16.696L10.4766 16.6956L10.4674 16.6963C10.4474 16.698 10.4272 16.6989 10.4066 16.6989C9.5908 16.6989 9.05578 16.3207 8.53859 15.955C8.15323 15.6826 7.78924 15.4253 7.34196 15.3509C7.13288 15.3161 6.92411 15.2984 6.72175 15.2984C6.35905 15.2984 6.07492 15.3539 5.86763 15.3944C5.75356 15.4167 5.65481 15.4358 5.59018 15.4358C5.53725 15.4358 5.53624 15.4327 5.52505 15.3945C5.49225 15.2831 5.46827 15.1729 5.44492 15.0663C5.37978 14.7679 5.3237 14.5101 5.09507 14.475C3.63333 14.2492 3.39836 13.948 3.36129 13.8612C3.3555 13.8475 3.35289 13.8358 3.35231 13.8255C5.5329 13.4665 6.50179 11.2835 6.56354 11.1393C6.71344 10.8355 6.74002 10.5651 6.64251 10.3357C6.46988 9.92918 5.95705 9.76626 5.61778 9.65865C5.53978 9.63398 5.47262 9.61252 5.4216 9.59239C4.98105 9.41833 4.84553 9.24298 4.86567 9.13672C4.88902 9.01419 5.10145 8.8896 5.28682 8.8896C5.32848 8.8896 5.36501 8.89632 5.39202 8.90895C5.69309 9.05006 5.96793 9.12161 6.209 9.12161C6.58795 9.12161 6.75661 8.94529 6.77472 8.92516L6.8158 8.87922L6.8125 8.8177C6.80484 8.67395 6.7954 8.52335 6.78545 8.36825C6.72393 7.38872 6.64698 6.17044 6.94704 5.49742C7.85526 3.46116 9.78025 3.3042 10.3485 3.3042C10.3625 3.3042 10.6095 3.30167 10.6095 3.30167C10.6197 3.30159 10.6309 3.30144 10.6427 3.30144ZM10.6427 2.9502H10.642C10.6291 2.9502 10.6169 2.9502 10.6053 2.95035C10.513 2.95128 10.3612 2.95276 10.3475 2.95292C10.0146 2.95292 9.34857 2.99994 8.6331 3.31574C8.22403 3.49618 7.85608 3.74016 7.5395 4.04092C7.16207 4.39927 6.85459 4.8411 6.62576 5.35433C6.29065 6.10578 6.3702 7.3715 6.43409 8.38866L6.43432 8.39025C6.44116 8.49918 6.44835 8.61293 6.45492 8.72377C6.40576 8.74635 6.32605 8.77017 6.20857 8.77017C6.01954 8.77017 5.79476 8.70974 5.54063 8.59066C5.46586 8.55584 5.38052 8.53824 5.28636 8.53824C5.13506 8.53824 4.97557 8.58278 4.83722 8.66412C4.66315 8.76632 4.55068 8.91078 4.52014 9.07093C4.50001 9.17687 4.50098 9.38626 4.73357 9.59861C4.86151 9.71551 5.04945 9.82331 5.29203 9.91919C5.35569 9.94426 5.43124 9.96819 5.51125 9.99357C5.78893 10.0818 6.20919 10.2152 6.31878 10.4731C6.37432 10.6039 6.35042 10.776 6.24794 10.984C6.24526 10.9896 6.24257 10.9952 6.24013 11.001C6.21452 11.0608 5.97559 11.602 5.48549 12.1728C5.207 12.4974 4.90025 12.7686 4.57427 12.9793C4.17639 13.2364 3.74587 13.4046 3.29479 13.4789C3.11766 13.5079 2.99116 13.6658 3.00103 13.8451C3.00406 13.8968 3.01618 13.9483 3.03721 13.9982C3.03737 13.9985 3.03756 13.9988 3.03771 13.9991C3.10934 14.1666 3.2754 14.3089 3.54538 14.4345C3.87529 14.5877 4.36869 14.7166 5.01175 14.8175C5.04424 14.8792 5.07797 15.0345 5.10133 15.1409C5.12577 15.2539 5.15127 15.3701 5.1876 15.4935C5.22682 15.6272 5.32852 15.787 5.5898 15.787C5.68882 15.787 5.80269 15.7647 5.93455 15.7392C6.12766 15.7013 6.39173 15.6496 6.72132 15.6496C6.90406 15.6496 7.09344 15.6657 7.28406 15.6973C7.65151 15.7585 7.96828 15.9823 8.33479 16.2414C8.87125 16.6207 9.47849 17.0499 10.4063 17.0499C10.4316 17.0499 10.4569 17.0491 10.482 17.0473C10.5127 17.0488 10.5507 17.0499 10.5908 17.0499C11.5188 17.0499 12.1259 16.6205 12.6618 16.2416L12.6626 16.2408C13.0292 15.982 13.3456 15.7585 13.713 15.6973C13.9035 15.6657 14.0929 15.6496 14.2757 15.6496C14.5905 15.6496 14.8398 15.6897 15.0624 15.7331C15.2077 15.7617 15.3206 15.7755 15.4072 15.7755L15.4157 15.7757H15.4245C15.6156 15.7757 15.756 15.6708 15.8096 15.4872C15.8452 15.3664 15.8706 15.2529 15.8957 15.138C15.9175 15.0384 15.9524 14.8786 15.9849 14.8162C16.6284 14.7151 17.1216 14.5865 17.4515 14.4333C17.7209 14.3084 17.8868 14.1662 17.9588 13.9994C17.9804 13.9493 17.9931 13.8975 17.9959 13.8447C18.006 13.6657 17.8793 13.5075 17.7021 13.4785C15.6974 13.1481 14.7942 11.0882 14.7569 11.0007C14.7545 10.9949 14.7517 10.9892 14.7489 10.9836C14.6464 10.7756 14.6228 10.6037 14.6783 10.4727C14.7877 10.215 15.2077 10.0816 15.4855 9.99342C15.566 9.96808 15.6418 9.94398 15.705 9.91903C15.9785 9.811 16.174 9.69379 16.303 9.56068C16.4571 9.402 16.4871 9.24997 16.4852 9.15048C16.4805 8.90977 16.2965 8.69587 16.0038 8.59113C15.9049 8.55025 15.7922 8.52868 15.6774 8.52868C15.5992 8.52868 15.4835 8.5394 15.3739 8.59055C15.1394 8.7003 14.9293 8.7603 14.7489 8.76885C14.653 8.76399 14.5858 8.7432 14.5422 8.72334C14.5477 8.62945 14.5537 8.53299 14.56 8.43242L14.5626 8.38936C14.6268 7.37154 14.7067 6.10484 14.3714 5.35285C14.1416 4.8378 13.833 4.39484 13.4541 4.03571C13.1363 3.73476 12.7671 3.49082 12.3565 3.31049C11.6421 2.99703 10.976 2.9502 10.6427 2.9502Z" fill="#020202"/>
</g>
<defs>
<clipPath id="clip0_6754_6111">
<rect width="20" height="20" fill="white" transform="translate(0.5)"/>
</clipPath>
</defs>
</svg>
