<svg width="18" height="18" viewBox="0 0 18 18" fill="none" xmlns="http://www.w3.org/2000/svg">
<g clip-path="url(#clip0_7135_83)">
<g clip-path="url(#clip1_7135_83)">
<path d="M12.3064 9.4395V17.4H5.69509V9.4395V8.83949H5.09509H1.52628C1.03062 8.81774 0.821462 8.67581 0.726353 8.54484L0.726363 8.54483L0.724083 8.54173C0.569251 8.33136 0.567475 8.14395 0.67258 7.9083C0.794251 7.6355 1.04817 7.34761 1.34572 7.08341L1.34572 7.0834L8.25036 0.952532L8.26383 0.940565L8.27657 0.92781C8.71297 0.49073 9.28852 0.49073 9.72492 0.92781L9.73802 0.94093L9.75191 0.953217L16.4862 6.91217L16.4862 6.9122C16.8162 7.20415 17.1287 7.5243 17.2925 7.83981C17.3707 7.99039 17.4007 8.11353 17.4 8.21358C17.3993 8.30459 17.3735 8.41117 17.2774 8.54168L17.2751 8.54484C17.1801 8.67576 16.9709 8.81774 16.4748 8.83949H12.9064H12.3064V9.4395Z" stroke="black" stroke-width="1.2"/>
</g>
</g>
<defs>
<clipPath id="clip0_7135_83">
<rect width="18" height="18" fill="white"/>
</clipPath>
<clipPath id="clip1_7135_83">
<rect width="18" height="18" fill="white"/>
</clipPath>
</defs>
</svg>
